<svg id="Layer_1" data-name="Layer 1" xmlns="http://www.w3.org/2000/svg" viewBox="0 0 1484 818"><defs><style>.cls-1{fill:#ce8b5c;}.cls-2{fill:#e2d7c5;}.cls-3{opacity:0.71;}</style></defs><rect class="cls-1" width="1484" height="818"/><path class="cls-2" d="M337.3,279.75a28.48,28.48,0,0,0,8.94-4.58,25.86,25.86,0,0,0,10.05-13.79c1.23-4.08,2.74-8,5.59-11.26a23.52,23.52,0,0,1,14.05-8c.66-.12.94.14,1.25.67,2.08,3.51,2.29,7.29,1.65,11.21-.91,5.49-3.64,10.09-7.13,14.26a38.63,38.63,0,0,1-19,12.59,21,21,0,0,1-14-.29A2.62,2.62,0,0,1,337.3,279.75Z"/><path class="cls-2" d="M372.22,238.32a28.66,28.66,0,0,0-11.82,7,26.29,26.29,0,0,0-7.41,12c-1,3.36-2.11,6.65-4.34,9.44a24.12,24.12,0,0,1-14.72,9.18,1.33,1.33,0,0,1-1.68-.77,16.32,16.32,0,0,1-1.49-11.24A30,30,0,0,1,337.64,250,38.66,38.66,0,0,1,357.9,237a20.64,20.64,0,0,1,13.19.62C371.46,237.72,371.9,237.75,372.22,238.32Z"/><path class="cls-2" d="M323.44,474.89a28.69,28.69,0,0,0,2.59-9.71,25.88,25.88,0,0,0-3.49-16.7c-2.21-3.65-4.09-7.38-4.61-11.7A23.5,23.5,0,0,1,321.4,421c.36-.57.74-.6,1.34-.48,4,.82,6.95,3.19,9.42,6.29,3.47,4.35,5,9.47,5.8,14.85a38.6,38.6,0,0,1-3.42,22.57,20.94,20.94,0,0,1-9.62,10.21A2.63,2.63,0,0,1,323.44,474.89Z"/><path class="cls-2" d="M316.1,421.21a28.81,28.81,0,0,0-2.77,13.42,26.41,26.41,0,0,0,3.95,13.55c1.83,3,3.52,6,4.09,9.55a24.06,24.06,0,0,1-3.06,17.08,1.33,1.33,0,0,1-1.69.73,16.35,16.35,0,0,1-9.34-6.44,30,30,0,0,1-5.66-14.39,38.66,38.66,0,0,1,3.87-23.81,20.56,20.56,0,0,1,9.3-9.36A1.6,1.6,0,0,1,316.1,421.21Z"/><path class="cls-2" d="M425.06,381.07a28.35,28.35,0,0,0-1.59-9.92,25.83,25.83,0,0,0-10-13.83c-3.5-2.44-6.73-5.08-9-8.81a23.5,23.5,0,0,1-3.26-15.84c.09-.67.42-.85,1-1,4-.89,7.65.08,11.17,1.91,4.94,2.56,8.47,6.59,11.35,11.2a38.66,38.66,0,0,1,6.07,22,21,21,0,0,1-4.63,13.24A2.7,2.7,0,0,1,425.06,381.07Z"/><path class="cls-2" d="M396.5,335a28.79,28.79,0,0,0,2.93,13.38,26.42,26.42,0,0,0,9.12,10.77c2.89,2,5.68,4.07,7.64,7.06a24,24,0,0,1,4.16,16.84,1.34,1.34,0,0,1-1.25,1.36A16.33,16.33,0,0,1,408,382.36a30,30,0,0,1-11-10.83,38.71,38.71,0,0,1-6.16-23.32,20.65,20.65,0,0,1,4.68-12.35C395.69,335.56,395.86,335.15,396.5,335Z"/><path class="cls-2" d="M557.44,384.89a28.69,28.69,0,0,0,2.59-9.71,25.88,25.88,0,0,0-3.49-16.7c-2.21-3.65-4.09-7.38-4.61-11.7A23.5,23.5,0,0,1,555.4,331c.36-.57.74-.6,1.34-.48,4,.82,7,3.19,9.42,6.29,3.47,4.35,5.05,9.47,5.8,14.85a38.6,38.6,0,0,1-3.42,22.57,20.94,20.94,0,0,1-9.62,10.21A2.63,2.63,0,0,1,557.44,384.89Z"/><path class="cls-2" d="M550.1,331.21a28.81,28.81,0,0,0-2.77,13.42,26.41,26.41,0,0,0,3.95,13.55c1.83,3,3.52,6,4.09,9.55a24.06,24.06,0,0,1-3.06,17.08,1.33,1.33,0,0,1-1.69.73,16.35,16.35,0,0,1-9.34-6.44,30,30,0,0,1-5.66-14.39,38.66,38.66,0,0,1,3.87-23.81,20.56,20.56,0,0,1,9.3-9.36A1.6,1.6,0,0,1,550.1,331.21Z"/><path class="cls-2" d="M517.94,265.75a28.32,28.32,0,0,0-10,.74,25.81,25.81,0,0,0-14.62,8.78c-2.73,3.28-5.64,6.28-9.54,8.2a23.57,23.57,0,0,1-16.06,1.91c-.66-.15-.81-.5-.89-1.11-.54-4,.73-7.61,2.85-11,3-4.71,7.28-7.88,12.12-10.37a38.7,38.7,0,0,1,22.44-4.18A21,21,0,0,1,517,264.5,2.59,2.59,0,0,1,517.94,265.75Z"/><path class="cls-2" d="M469.65,290.31a28.76,28.76,0,0,0,13.58-1.8,26.35,26.35,0,0,0,11.51-8.17c2.22-2.71,4.53-5.31,7.67-7a24.08,24.08,0,0,1,17.14-2.72,1.33,1.33,0,0,1,1.24,1.36,16.34,16.34,0,0,1-3,10.94A29.94,29.94,0,0,1,506.05,293a38.73,38.73,0,0,1-23.76,4.16,20.61,20.61,0,0,1-11.9-5.71C470.11,291.16,469.71,291,469.65,290.31Z"/><path class="cls-2" d="M73.8,85.56A28.5,28.5,0,0,0,82.74,81,25.88,25.88,0,0,0,92.79,67.19c1.23-4.09,2.74-8,5.59-11.27a23.57,23.57,0,0,1,14.05-8c.66-.12.94.14,1.25.67,2.08,3.52,2.29,7.3,1.65,11.21-.91,5.49-3.64,10.09-7.13,14.27a38.7,38.7,0,0,1-19,12.59,20.93,20.93,0,0,1-14-.3A2.6,2.6,0,0,1,73.8,85.56Z"/><path class="cls-2" d="M108.72,44.13A28.75,28.75,0,0,0,96.9,51.07a26.34,26.34,0,0,0-7.41,12c-1,3.36-2.11,6.65-4.34,9.44A24,24,0,0,1,70.43,81.7a1.33,1.33,0,0,1-1.68-.76,16.34,16.34,0,0,1-1.49-11.25,29.92,29.92,0,0,1,6.88-13.85A38.68,38.68,0,0,1,94.4,42.75a20.64,20.64,0,0,1,13.19.62C108,43.52,108.4,43.56,108.72,44.13Z"/><path class="cls-2" d="M67.94,221.69a28.63,28.63,0,0,0,2.59-9.7A25.88,25.88,0,0,0,67,195.29c-2.21-3.65-4.09-7.38-4.61-11.7a23.54,23.54,0,0,1,3.47-15.8c.36-.57.74-.6,1.34-.48,4,.82,7,3.19,9.42,6.3,3.47,4.35,5,9.46,5.8,14.85A38.61,38.61,0,0,1,79,211a21,21,0,0,1-9.62,10.21A2.55,2.55,0,0,1,67.94,221.69Z"/><path class="cls-2" d="M60.6,168a28.81,28.81,0,0,0-2.77,13.42,26.36,26.36,0,0,0,4,13.55c1.83,3,3.52,6,4.09,9.56a24,24,0,0,1-3.06,17.07,1.32,1.32,0,0,1-1.69.73,16.34,16.34,0,0,1-9.34-6.43,30,30,0,0,1-5.66-14.4A38.62,38.62,0,0,1,50,177.71a20.58,20.58,0,0,1,9.3-9.37A1.67,1.67,0,0,1,60.6,168Z"/><path class="cls-2" d="M185.56,209.87A28.38,28.38,0,0,0,184,200a25.87,25.87,0,0,0-10-13.83c-3.5-2.44-6.73-5.08-9-8.8a23.51,23.51,0,0,1-3.26-15.84c.09-.67.42-.85,1-1,4-.88,7.65.09,11.17,1.91,4.94,2.57,8.47,6.59,11.35,11.2a38.68,38.68,0,0,1,6.07,22,21,21,0,0,1-4.63,13.25A2.62,2.62,0,0,1,185.56,209.87Z"/><path class="cls-2" d="M157,163.83a28.83,28.83,0,0,0,2.93,13.39A26.48,26.48,0,0,0,169.05,188c2.89,2,5.68,4.07,7.64,7.06a24,24,0,0,1,4.16,16.84,1.33,1.33,0,0,1-1.25,1.35,16.38,16.38,0,0,1-11.15-2.07,29.9,29.9,0,0,1-11-10.84A38.69,38.69,0,0,1,151.25,177a20.62,20.62,0,0,1,4.68-12.34C156.19,164.36,156.36,164,157,163.83Z"/><path class="cls-2" d="M126.94,583.69a28.63,28.63,0,0,0,2.59-9.7,25.88,25.88,0,0,0-3.49-16.7c-2.21-3.65-4.09-7.38-4.61-11.7a23.54,23.54,0,0,1,3.47-15.8c.36-.57.74-.6,1.34-.48,4,.82,7,3.19,9.42,6.3,3.47,4.35,5.05,9.46,5.8,14.85A38.61,38.61,0,0,1,138,573a21,21,0,0,1-9.62,10.21A2.55,2.55,0,0,1,126.94,583.69Z"/><path class="cls-2" d="M119.6,530a28.81,28.81,0,0,0-2.77,13.42,26.36,26.36,0,0,0,4,13.55c1.83,3,3.52,6,4.09,9.56a24,24,0,0,1-3.06,17.07,1.32,1.32,0,0,1-1.69.73,16.34,16.34,0,0,1-9.34-6.43,30,30,0,0,1-5.66-14.4,38.62,38.62,0,0,1,3.87-23.8,20.58,20.58,0,0,1,9.3-9.37A1.67,1.67,0,0,1,119.6,530Z"/><path class="cls-2" d="M287.44,54.55a28.55,28.55,0,0,0-10,.74,25.83,25.83,0,0,0-14.62,8.79c-2.73,3.28-5.64,6.28-9.54,8.19a23.52,23.52,0,0,1-16.06,1.91c-.66-.15-.81-.5-.89-1.1-.54-4,.73-7.62,2.85-11,3-4.7,7.28-7.88,12.12-10.36a38.62,38.62,0,0,1,22.44-4.18,21,21,0,0,1,12.81,5.73A2.59,2.59,0,0,1,287.44,54.55Z"/><path class="cls-2" d="M239.15,79.11a28.63,28.63,0,0,0,13.58-1.79,26.38,26.38,0,0,0,11.51-8.18c2.22-2.71,4.53-5.3,7.67-7a24,24,0,0,1,17.14-2.72,1.32,1.32,0,0,1,1.24,1.36,16.32,16.32,0,0,1-3,10.93,29.94,29.94,0,0,1-11.73,10.08A38.66,38.66,0,0,1,251.79,86a20.55,20.55,0,0,1-11.9-5.71C239.61,80,239.21,79.76,239.15,79.11Z"/><path class="cls-2" d="M428.8,89.56A28.5,28.5,0,0,0,437.74,85a25.88,25.88,0,0,0,10.05-13.78c1.23-4.09,2.74-8,5.59-11.27a23.57,23.57,0,0,1,14.05-8c.66-.12.94.14,1.25.67,2.08,3.52,2.29,7.3,1.65,11.21-.91,5.49-3.64,10.09-7.13,14.27a38.7,38.7,0,0,1-19,12.59,20.93,20.93,0,0,1-14-.3A2.6,2.6,0,0,1,428.8,89.56Z"/><path class="cls-2" d="M463.72,48.13a28.75,28.75,0,0,0-11.82,6.94,26.34,26.34,0,0,0-7.41,12c-1,3.36-2.11,6.65-4.34,9.44a24,24,0,0,1-14.72,9.18,1.33,1.33,0,0,1-1.68-.76,16.34,16.34,0,0,1-1.49-11.25,29.92,29.92,0,0,1,6.88-13.85A38.68,38.68,0,0,1,449.4,46.75a20.64,20.64,0,0,1,13.19.62C463,47.52,463.4,47.56,463.72,48.13Z"/><path class="cls-2" d="M424.94,208.69a28.63,28.63,0,0,0,2.59-9.7,25.88,25.88,0,0,0-3.49-16.7c-2.21-3.65-4.09-7.38-4.61-11.7a23.54,23.54,0,0,1,3.47-15.8c.36-.57.74-.6,1.34-.48,4,.82,6.95,3.19,9.42,6.3,3.47,4.35,5,9.46,5.8,14.85A38.61,38.61,0,0,1,436,198a21,21,0,0,1-9.62,10.21A2.55,2.55,0,0,1,424.94,208.69Z"/><path class="cls-2" d="M417.6,155a28.81,28.81,0,0,0-2.77,13.42A26.36,26.36,0,0,0,418.78,182c1.83,3,3.52,6,4.09,9.56a24,24,0,0,1-3.06,17.07,1.32,1.32,0,0,1-1.69.73,16.34,16.34,0,0,1-9.34-6.43,30,30,0,0,1-5.66-14.4,38.62,38.62,0,0,1,3.87-23.8,20.58,20.58,0,0,1,9.3-9.37A1.67,1.67,0,0,1,417.6,155Z"/><path class="cls-2" d="M540.56,186.87A28.38,28.38,0,0,0,539,177a25.87,25.87,0,0,0-10-13.83c-3.5-2.44-6.73-5.08-9-8.8a23.51,23.51,0,0,1-3.26-15.84c.09-.67.42-.85,1-1,4-.88,7.65.09,11.17,1.91,4.94,2.57,8.47,6.59,11.35,11.2a38.68,38.68,0,0,1,6.07,22,21,21,0,0,1-4.63,13.25A2.62,2.62,0,0,1,540.56,186.87Z"/><path class="cls-2" d="M512,140.83a28.83,28.83,0,0,0,2.93,13.39A26.48,26.48,0,0,0,524.05,165c2.89,2,5.68,4.07,7.64,7.06a24,24,0,0,1,4.16,16.84,1.33,1.33,0,0,1-1.25,1.35,16.38,16.38,0,0,1-11.15-2.07,29.9,29.9,0,0,1-11-10.84A38.69,38.69,0,0,1,506.25,154a20.62,20.62,0,0,1,4.68-12.34C511.19,141.36,511.36,141,512,140.83Z"/><path class="cls-2" d="M638.94,191.69a28.63,28.63,0,0,0,2.59-9.7,25.88,25.88,0,0,0-3.49-16.7c-2.21-3.65-4.09-7.38-4.61-11.7a23.54,23.54,0,0,1,3.47-15.8c.36-.57.74-.6,1.34-.48,4,.82,7,3.19,9.42,6.3,3.47,4.35,5.05,9.46,5.8,14.85A38.61,38.61,0,0,1,650,181a21,21,0,0,1-9.62,10.21A2.55,2.55,0,0,1,638.94,191.69Z"/><path class="cls-2" d="M631.6,138a28.81,28.81,0,0,0-2.77,13.42A26.36,26.36,0,0,0,632.78,165c1.83,3,3.52,6,4.09,9.56a24,24,0,0,1-3.06,17.07,1.32,1.32,0,0,1-1.69.73,16.34,16.34,0,0,1-9.34-6.43,30,30,0,0,1-5.66-14.4,38.62,38.62,0,0,1,3.87-23.8,20.58,20.58,0,0,1,9.3-9.37A1.67,1.67,0,0,1,631.6,138Z"/><path class="cls-2" d="M642.44,58.55a28.55,28.55,0,0,0-10,.74,25.83,25.83,0,0,0-14.62,8.79c-2.73,3.28-5.64,6.28-9.54,8.19a23.52,23.52,0,0,1-16.06,1.91c-.66-.15-.81-.5-.89-1.1-.54-4,.73-7.62,2.85-11,3-4.7,7.28-7.88,12.12-10.36a38.62,38.62,0,0,1,22.44-4.18,21,21,0,0,1,12.81,5.73A2.59,2.59,0,0,1,642.44,58.55Z"/><path class="cls-2" d="M594.15,83.11a28.63,28.63,0,0,0,13.58-1.79,26.38,26.38,0,0,0,11.51-8.18c2.22-2.71,4.53-5.3,7.67-7a24,24,0,0,1,17.14-2.72,1.32,1.32,0,0,1,1.24,1.36,16.32,16.32,0,0,1-3,10.93,29.94,29.94,0,0,1-11.73,10.08A38.66,38.66,0,0,1,606.79,90a20.55,20.55,0,0,1-11.9-5.71C594.61,84,594.21,83.76,594.15,83.11Z"/><path class="cls-2" d="M45.8,328.56A28.5,28.5,0,0,0,54.74,324a25.88,25.88,0,0,0,10.05-13.78c1.23-4.09,2.74-8,5.59-11.27a23.57,23.57,0,0,1,14.05-8c.66-.12.94.14,1.25.67,2.08,3.52,2.29,7.3,1.65,11.21-.91,5.49-3.64,10.09-7.13,14.27a38.7,38.7,0,0,1-19,12.59,20.93,20.93,0,0,1-14-.3A2.6,2.6,0,0,1,45.8,328.56Z"/><path class="cls-2" d="M80.72,287.13a28.75,28.75,0,0,0-11.82,6.94,26.34,26.34,0,0,0-7.41,12c-1,3.36-2.11,6.65-4.34,9.44a24,24,0,0,1-14.72,9.18,1.33,1.33,0,0,1-1.68-.76,16.34,16.34,0,0,1-1.49-11.25,29.92,29.92,0,0,1,6.88-13.85A38.68,38.68,0,0,1,66.4,285.75a20.64,20.64,0,0,1,13.19.62C80,286.52,80.4,286.56,80.72,287.13Z"/><path class="cls-2" d="M39.94,464.69a28.63,28.63,0,0,0,2.59-9.7A25.88,25.88,0,0,0,39,438.29c-2.21-3.65-4.09-7.38-4.61-11.7a23.54,23.54,0,0,1,3.47-15.8c.36-.57.74-.6,1.34-.48,4,.82,6.95,3.19,9.42,6.3,3.47,4.35,5.05,9.46,5.8,14.85A38.61,38.61,0,0,1,51,454a21,21,0,0,1-9.62,10.21A2.55,2.55,0,0,1,39.94,464.69Z"/><path class="cls-2" d="M32.6,411a28.81,28.81,0,0,0-2.77,13.42,26.36,26.36,0,0,0,4,13.55c1.83,3,3.52,6,4.09,9.56a24,24,0,0,1-3.06,17.07,1.32,1.32,0,0,1-1.69.73,16.34,16.34,0,0,1-9.34-6.43,30,30,0,0,1-5.66-14.4A38.62,38.62,0,0,1,22,420.71a20.58,20.58,0,0,1,9.3-9.37A1.67,1.67,0,0,1,32.6,411Z"/><path class="cls-2" d="M157.56,452.87A28.38,28.38,0,0,0,156,443a25.87,25.87,0,0,0-10-13.83c-3.5-2.44-6.73-5.08-9-8.8a23.51,23.51,0,0,1-3.26-15.84c.09-.67.42-.85,1-1,4-.88,7.65.09,11.17,1.91,4.94,2.57,8.47,6.59,11.35,11.2a38.68,38.68,0,0,1,6.07,22,21,21,0,0,1-4.63,13.25A2.62,2.62,0,0,1,157.56,452.87Z"/><path class="cls-2" d="M129,406.83a28.83,28.83,0,0,0,2.93,13.39A26.48,26.48,0,0,0,141.05,431c2.89,2,5.68,4.07,7.64,7.06a24,24,0,0,1,4.16,16.84,1.33,1.33,0,0,1-1.25,1.35,16.38,16.38,0,0,1-11.15-2.07,29.9,29.9,0,0,1-11-10.84A38.69,38.69,0,0,1,123.25,420a20.62,20.62,0,0,1,4.68-12.34C128.19,407.36,128.36,407,129,406.83Z"/><path class="cls-2" d="M254.94,589.69a28.63,28.63,0,0,0,2.59-9.7,25.88,25.88,0,0,0-3.49-16.7c-2.21-3.65-4.09-7.38-4.61-11.7a23.54,23.54,0,0,1,3.47-15.8c.36-.57.74-.6,1.34-.48,4,.82,6.95,3.19,9.42,6.3,3.47,4.35,5,9.46,5.8,14.85A38.61,38.61,0,0,1,266,579a21,21,0,0,1-9.62,10.21A2.55,2.55,0,0,1,254.94,589.69Z"/><path class="cls-2" d="M247.6,536a28.81,28.81,0,0,0-2.77,13.42A26.36,26.36,0,0,0,248.78,563c1.83,3,3.52,6,4.09,9.56a24,24,0,0,1-3.06,17.07,1.32,1.32,0,0,1-1.69.73,16.34,16.34,0,0,1-9.34-6.43,30,30,0,0,1-5.66-14.4,38.62,38.62,0,0,1,3.87-23.8,20.58,20.58,0,0,1,9.3-9.37A1.67,1.67,0,0,1,247.6,536Z"/><path class="cls-2" d="M259.44,297.55a28.55,28.55,0,0,0-10,.74,25.83,25.83,0,0,0-14.62,8.79c-2.73,3.28-5.64,6.28-9.54,8.19a23.52,23.52,0,0,1-16.06,1.91c-.66-.15-.81-.5-.89-1.1-.54-4.05.73-7.62,2.85-11,3-4.7,7.28-7.88,12.12-10.36a38.62,38.62,0,0,1,22.44-4.18,21,21,0,0,1,12.81,5.73A2.59,2.59,0,0,1,259.44,297.55Z"/><path class="cls-2" d="M211.15,322.11a28.63,28.63,0,0,0,13.58-1.79,26.38,26.38,0,0,0,11.51-8.18c2.22-2.71,4.53-5.3,7.67-7a24,24,0,0,1,17.14-2.72,1.32,1.32,0,0,1,1.24,1.36,16.32,16.32,0,0,1-3,10.93,29.94,29.94,0,0,1-11.73,10.08A38.66,38.66,0,0,1,223.79,329a20.55,20.55,0,0,1-11.9-5.71C211.61,323,211.21,322.76,211.15,322.11Z"/><path class="cls-2" d="M76.8,651.77a28.5,28.5,0,0,0,8.94-4.59A25.8,25.8,0,0,0,95.79,633.4c1.23-4.08,2.74-8,5.59-11.26a23.52,23.52,0,0,1,14.05-8c.66-.12.94.14,1.25.66,2.08,3.52,2.29,7.3,1.65,11.21-.91,5.49-3.64,10.1-7.13,14.27a38.7,38.7,0,0,1-19,12.59,20.93,20.93,0,0,1-14-.3A2.53,2.53,0,0,1,76.8,651.77Z"/><path class="cls-2" d="M111.72,610.34a28.75,28.75,0,0,0-11.82,6.94,26.39,26.39,0,0,0-7.41,12c-1,3.36-2.11,6.66-4.34,9.45a24.12,24.12,0,0,1-14.72,9.18,1.33,1.33,0,0,1-1.68-.77,16.34,16.34,0,0,1-1.49-11.25,30,30,0,0,1,6.88-13.85A38.68,38.68,0,0,1,97.4,609a20.57,20.57,0,0,1,13.19.63A1.64,1.64,0,0,1,111.72,610.34Z"/><path class="cls-2" d="M49.94,785.91a28.69,28.69,0,0,0,2.59-9.71A25.88,25.88,0,0,0,49,759.5c-2.21-3.65-4.09-7.38-4.61-11.7A23.5,23.5,0,0,1,47.9,732c.36-.57.74-.6,1.34-.48,4,.81,6.95,3.19,9.42,6.29,3.47,4.35,5.05,9.47,5.8,14.85A38.61,38.61,0,0,1,61,775.24a20.94,20.94,0,0,1-9.62,10.21A2.63,2.63,0,0,1,49.94,785.91Z"/><path class="cls-2" d="M42.6,732.22a28.84,28.84,0,0,0-2.77,13.42,26.42,26.42,0,0,0,4,13.56c1.83,3,3.52,6,4.09,9.55a24.06,24.06,0,0,1-3.06,17.08,1.33,1.33,0,0,1-1.69.73,16.35,16.35,0,0,1-9.34-6.44,30,30,0,0,1-5.66-14.39A38.65,38.65,0,0,1,32,741.92a20.63,20.63,0,0,1,9.3-9.37A1.67,1.67,0,0,1,42.6,732.22Z"/><path class="cls-2" d="M195.56,753.09a28.44,28.44,0,0,0-1.59-9.93,25.85,25.85,0,0,0-10-13.82c-3.5-2.44-6.73-5.08-9-8.81a23.51,23.51,0,0,1-3.26-15.84c.09-.67.42-.85,1-1,4-.89,7.65.08,11.17,1.91,4.94,2.56,8.47,6.59,11.35,11.2a38.65,38.65,0,0,1,6.07,22,21,21,0,0,1-4.63,13.25A2.7,2.7,0,0,1,195.56,753.09Z"/><path class="cls-2" d="M167,707a28.8,28.8,0,0,0,2.93,13.39,26.48,26.48,0,0,0,9.12,10.77c2.89,2,5.68,4.07,7.64,7.06a24,24,0,0,1,4.16,16.84,1.34,1.34,0,0,1-1.25,1.36,16.33,16.33,0,0,1-11.15-2.08,29.9,29.9,0,0,1-11-10.84,38.66,38.66,0,0,1-6.16-23.31,20.65,20.65,0,0,1,4.68-12.35C166.19,707.58,166.36,707.17,167,707Z"/><path class="cls-2" d="M349.94,778.91a28.69,28.69,0,0,0,2.59-9.71A25.88,25.88,0,0,0,349,752.5c-2.21-3.65-4.09-7.38-4.61-11.7A23.5,23.5,0,0,1,347.9,725c.36-.57.74-.6,1.34-.48,4,.81,6.95,3.19,9.42,6.29,3.47,4.35,5,9.47,5.8,14.85A38.61,38.61,0,0,1,361,768.24a20.94,20.94,0,0,1-9.62,10.21A2.63,2.63,0,0,1,349.94,778.91Z"/><path class="cls-2" d="M342.6,725.22a28.84,28.84,0,0,0-2.77,13.42,26.42,26.42,0,0,0,3.95,13.56c1.83,3,3.52,6,4.09,9.55a24.06,24.06,0,0,1-3.06,17.08,1.33,1.33,0,0,1-1.69.73,16.35,16.35,0,0,1-9.34-6.44,30,30,0,0,1-5.66-14.39A38.65,38.65,0,0,1,332,734.92a20.63,20.63,0,0,1,9.3-9.37A1.67,1.67,0,0,1,342.6,725.22Z"/><path class="cls-2" d="M303.44,654.77a28.09,28.09,0,0,0-10,.74,25.81,25.81,0,0,0-14.62,8.78c-2.73,3.28-5.64,6.28-9.54,8.2a23.57,23.57,0,0,1-16.06,1.9c-.66-.15-.81-.49-.89-1.1-.54-4,.73-7.61,2.85-11,3-4.7,7.28-7.87,12.12-10.36a38.62,38.62,0,0,1,22.44-4.18,21,21,0,0,1,12.81,5.74A2.54,2.54,0,0,1,303.44,654.77Z"/><path class="cls-2" d="M255.15,679.33a28.76,28.76,0,0,0,13.58-1.8,26.35,26.35,0,0,0,11.51-8.17c2.22-2.71,4.53-5.31,7.67-7a24.08,24.08,0,0,1,17.14-2.72,1.33,1.33,0,0,1,1.24,1.36,16.3,16.3,0,0,1-3,10.93A29.86,29.86,0,0,1,291.55,682a38.66,38.66,0,0,1-23.76,4.17,20.67,20.67,0,0,1-11.9-5.71C255.61,680.18,255.21,680,255.15,679.33Z"/><path class="cls-2" d="M417.8,506.77a28.5,28.5,0,0,0,8.94-4.59,25.8,25.8,0,0,0,10.05-13.78c1.23-4.08,2.74-8,5.59-11.26a23.52,23.52,0,0,1,14.05-8c.66-.12.94.14,1.25.66,2.08,3.52,2.29,7.3,1.65,11.21-.91,5.49-3.64,10.1-7.13,14.27a38.7,38.7,0,0,1-19,12.59,20.93,20.93,0,0,1-14-.3A2.53,2.53,0,0,1,417.8,506.77Z"/><path class="cls-2" d="M452.72,465.34a28.75,28.75,0,0,0-11.82,6.94,26.39,26.39,0,0,0-7.41,12c-1,3.36-2.11,6.66-4.34,9.45a24.12,24.12,0,0,1-14.72,9.18,1.33,1.33,0,0,1-1.68-.77,16.34,16.34,0,0,1-1.49-11.25,30,30,0,0,1,6.88-13.85A38.68,38.68,0,0,1,438.4,464a20.57,20.57,0,0,1,13.19.63A1.64,1.64,0,0,1,452.72,465.34Z"/><path class="cls-2" d="M411.94,642.91a28.69,28.69,0,0,0,2.59-9.71A25.88,25.88,0,0,0,411,616.5c-2.21-3.65-4.09-7.38-4.61-11.7A23.5,23.5,0,0,1,409.9,589c.36-.57.74-.6,1.34-.48,4,.81,6.95,3.19,9.42,6.29,3.47,4.35,5,9.47,5.8,14.85A38.61,38.61,0,0,1,423,632.24a20.94,20.94,0,0,1-9.62,10.21A2.63,2.63,0,0,1,411.94,642.91Z"/><path class="cls-2" d="M404.6,589.22a28.84,28.84,0,0,0-2.77,13.42,26.42,26.42,0,0,0,3.95,13.56c1.83,3,3.52,6,4.09,9.55a24.06,24.06,0,0,1-3.06,17.08,1.33,1.33,0,0,1-1.69.73,16.35,16.35,0,0,1-9.34-6.44,30,30,0,0,1-5.66-14.39A38.65,38.65,0,0,1,394,598.92a20.63,20.63,0,0,1,9.3-9.37A1.67,1.67,0,0,1,404.6,589.22Z"/><path class="cls-2" d="M509.56,604.09a28.44,28.44,0,0,0-1.59-9.93,25.85,25.85,0,0,0-10-13.82c-3.5-2.44-6.73-5.08-9-8.81a23.51,23.51,0,0,1-3.26-15.84c.09-.67.42-.85,1-1,4-.89,7.65.08,11.17,1.91,4.94,2.56,8.47,6.59,11.35,11.2a38.65,38.65,0,0,1,6.07,22,21,21,0,0,1-4.63,13.25A2.7,2.7,0,0,1,509.56,604.09Z"/><path class="cls-2" d="M481,558a28.8,28.8,0,0,0,2.93,13.39,26.48,26.48,0,0,0,9.12,10.77c2.89,2,5.68,4.07,7.64,7.06a24,24,0,0,1,4.16,16.84,1.34,1.34,0,0,1-1.25,1.36,16.33,16.33,0,0,1-11.15-2.08,29.9,29.9,0,0,1-11-10.84,38.66,38.66,0,0,1-6.16-23.31,20.65,20.65,0,0,1,4.68-12.35C480.19,558.58,480.36,558.17,481,558Z"/><path class="cls-2" d="M726.94,607.91a28.69,28.69,0,0,0,2.59-9.71A25.88,25.88,0,0,0,726,581.5c-2.21-3.65-4.09-7.38-4.61-11.7A23.5,23.5,0,0,1,724.9,554c.36-.57.74-.6,1.34-.48,4,.81,7,3.19,9.42,6.29,3.47,4.35,5.05,9.47,5.8,14.85A38.61,38.61,0,0,1,738,597.24a20.94,20.94,0,0,1-9.62,10.21A2.63,2.63,0,0,1,726.94,607.91Z"/><path class="cls-2" d="M719.6,554.22a28.84,28.84,0,0,0-2.77,13.42,26.42,26.42,0,0,0,3.95,13.56c1.83,3,3.52,6,4.09,9.55a24.06,24.06,0,0,1-3.06,17.08,1.33,1.33,0,0,1-1.69.73,16.35,16.35,0,0,1-9.34-6.44,30,30,0,0,1-5.66-14.39A38.65,38.65,0,0,1,709,563.92a20.63,20.63,0,0,1,9.3-9.37A1.67,1.67,0,0,1,719.6,554.22Z"/><path class="cls-2" d="M629.44,535.77a28.09,28.09,0,0,0-10,.74,25.81,25.81,0,0,0-14.62,8.78c-2.73,3.28-5.64,6.28-9.54,8.2a23.57,23.57,0,0,1-16.06,1.9c-.66-.15-.81-.49-.89-1.1-.54-4,.73-7.61,2.85-11,3-4.7,7.28-7.87,12.12-10.36a38.62,38.62,0,0,1,22.44-4.18,21,21,0,0,1,12.81,5.74A2.54,2.54,0,0,1,629.44,535.77Z"/><path class="cls-2" d="M581.15,560.33a28.76,28.76,0,0,0,13.58-1.8,26.35,26.35,0,0,0,11.51-8.17c2.22-2.71,4.53-5.31,7.67-7a24.08,24.08,0,0,1,17.14-2.72,1.33,1.33,0,0,1,1.24,1.36,16.3,16.3,0,0,1-3,10.93A29.86,29.86,0,0,1,617.55,563a38.66,38.66,0,0,1-23.76,4.17,20.67,20.67,0,0,1-11.9-5.71C581.61,561.18,581.21,561,581.15,560.33Z"/><path class="cls-2" d="M588.8,661.45a28.48,28.48,0,0,0,8.94-4.58,25.86,25.86,0,0,0,10-13.79c1.23-4.08,2.74-8,5.59-11.26a23.52,23.52,0,0,1,14-8c.66-.12.94.14,1.25.66,2.08,3.52,2.29,7.3,1.65,11.22-.91,5.49-3.64,10.09-7.13,14.26a38.63,38.63,0,0,1-19,12.59,21,21,0,0,1-14-.29A2.62,2.62,0,0,1,588.8,661.45Z"/><path class="cls-2" d="M623.72,620A28.75,28.75,0,0,0,611.9,627a26.39,26.39,0,0,0-7.41,12c-1,3.37-2.11,6.66-4.34,9.45a24.12,24.12,0,0,1-14.72,9.18,1.33,1.33,0,0,1-1.68-.77,16.34,16.34,0,0,1-1.49-11.25,30,30,0,0,1,6.88-13.85,38.66,38.66,0,0,1,20.26-13.08,20.57,20.57,0,0,1,13.19.62C623,619.42,623.4,619.45,623.72,620Z"/><path class="cls-2" d="M668.94,774.59a28.69,28.69,0,0,0,2.59-9.71,25.88,25.88,0,0,0-3.49-16.7c-2.21-3.65-4.09-7.38-4.61-11.7a23.5,23.5,0,0,1,3.47-15.79c.36-.57.74-.6,1.34-.48,4,.81,7,3.19,9.42,6.29,3.47,4.35,5.05,9.47,5.8,14.85A38.61,38.61,0,0,1,680,763.92a20.94,20.94,0,0,1-9.62,10.21A2.63,2.63,0,0,1,668.94,774.59Z"/><path class="cls-2" d="M661.6,720.9a28.85,28.85,0,0,0-2.77,13.43,26.41,26.41,0,0,0,3.95,13.55c1.83,3,3.52,6,4.09,9.55a24.06,24.06,0,0,1-3.06,17.08,1.33,1.33,0,0,1-1.69.73,16.35,16.35,0,0,1-9.34-6.44,30,30,0,0,1-5.66-14.39A38.65,38.65,0,0,1,651,730.6a20.56,20.56,0,0,1,9.3-9.36A1.64,1.64,0,0,1,661.6,720.9Z"/><path class="cls-2" d="M786.56,762.77a28.44,28.44,0,0,0-1.59-9.93A25.85,25.85,0,0,0,775,739c-3.5-2.44-6.73-5.08-9-8.81a23.51,23.51,0,0,1-3.26-15.84c.09-.67.42-.85,1-1,4-.89,7.65.08,11.17,1.91,4.94,2.56,8.47,6.59,11.35,11.2a38.66,38.66,0,0,1,6.07,22,21,21,0,0,1-4.63,13.24A2.7,2.7,0,0,1,786.56,762.77Z"/><path class="cls-2" d="M758,716.73a28.79,28.79,0,0,0,2.93,13.38,26.48,26.48,0,0,0,9.12,10.77c2.89,2,5.68,4.07,7.64,7.06a24,24,0,0,1,4.16,16.84,1.34,1.34,0,0,1-1.25,1.36,16.33,16.33,0,0,1-11.15-2.08,29.9,29.9,0,0,1-11-10.84,38.66,38.66,0,0,1-6.16-23.31,20.65,20.65,0,0,1,4.68-12.35C757.19,717.26,757.36,716.85,758,716.73Z"/><path class="cls-2" d="M885.94,761.59a28.69,28.69,0,0,0,2.59-9.71,25.88,25.88,0,0,0-3.49-16.7c-2.21-3.65-4.09-7.38-4.61-11.7a23.5,23.5,0,0,1,3.47-15.79c.36-.57.74-.6,1.34-.48,4,.81,7,3.19,9.42,6.29,3.47,4.35,5.05,9.47,5.8,14.85A38.61,38.61,0,0,1,897,750.92a20.94,20.94,0,0,1-9.62,10.21A2.63,2.63,0,0,1,885.94,761.59Z"/><path class="cls-2" d="M878.6,707.9a28.85,28.85,0,0,0-2.77,13.43,26.41,26.41,0,0,0,3.95,13.55c1.83,3,3.52,6,4.09,9.55a24.06,24.06,0,0,1-3.06,17.08,1.33,1.33,0,0,1-1.69.73,16.35,16.35,0,0,1-9.34-6.44,30,30,0,0,1-5.66-14.39A38.65,38.65,0,0,1,868,717.6a20.56,20.56,0,0,1,9.3-9.36A1.64,1.64,0,0,1,878.6,707.9Z"/><path class="cls-2" d="M888.44,607.45a28.32,28.32,0,0,0-10,.74A25.81,25.81,0,0,0,863.8,617c-2.73,3.28-5.64,6.28-9.54,8.2a23.57,23.57,0,0,1-16.06,1.9c-.66-.15-.81-.49-.89-1.1-.54-4.05.73-7.61,2.85-11,3-4.7,7.28-7.87,12.12-10.36a38.62,38.62,0,0,1,22.44-4.18,21,21,0,0,1,12.81,5.74A2.59,2.59,0,0,1,888.44,607.45Z"/><path class="cls-2" d="M840.15,632a28.76,28.76,0,0,0,13.58-1.8A26.35,26.35,0,0,0,865.24,622c2.22-2.71,4.53-5.31,7.67-7a24.08,24.08,0,0,1,17.14-2.72,1.33,1.33,0,0,1,1.24,1.36,16.34,16.34,0,0,1-3,10.94,29.83,29.83,0,0,1-11.73,10.07,38.66,38.66,0,0,1-23.76,4.17,20.61,20.61,0,0,1-11.9-5.71C840.61,632.86,840.21,632.66,840.15,632Z"/><path class="cls-2" d="M804.78,309.62a28.48,28.48,0,0,0,8.94-4.58,25.92,25.92,0,0,0,10-13.79c1.23-4.08,2.74-8,5.59-11.26a23.52,23.52,0,0,1,14-8c.66-.12.94.14,1.25.67,2.08,3.51,2.29,7.29,1.65,11.21-.91,5.49-3.64,10.09-7.13,14.26a38.63,38.63,0,0,1-19,12.59,21,21,0,0,1-14-.29A2.58,2.58,0,0,1,804.78,309.62Z"/><path class="cls-2" d="M839.7,268.19a28.75,28.75,0,0,0-11.82,6.94,26.39,26.39,0,0,0-7.41,12c-1,3.37-2.11,6.66-4.35,9.45a24.09,24.09,0,0,1-14.71,9.18,1.33,1.33,0,0,1-1.68-.77,16.32,16.32,0,0,1-1.49-11.24,30,30,0,0,1,6.88-13.86,38.66,38.66,0,0,1,20.26-13.08,20.57,20.57,0,0,1,13.19.62C838.94,267.59,839.38,267.62,839.7,268.19Z"/><path class="cls-2" d="M785.91,514.76a28.47,28.47,0,0,0,2.6-9.71,25.88,25.88,0,0,0-3.49-16.7c-2.21-3.65-4.09-7.38-4.61-11.7a23.5,23.5,0,0,1,3.47-15.79,1.05,1.05,0,0,1,1.33-.48c4,.81,7,3.19,9.43,6.29,3.47,4.35,5.05,9.47,5.8,14.85A38.61,38.61,0,0,1,797,504.09a20.94,20.94,0,0,1-9.62,10.21A2.64,2.64,0,0,1,785.91,514.76Z"/><path class="cls-2" d="M778.58,461.07a28.85,28.85,0,0,0-2.77,13.43,26.5,26.5,0,0,0,3.94,13.55c1.84,3,3.53,6,4.1,9.55a24.06,24.06,0,0,1-3.06,17.08,1.33,1.33,0,0,1-1.69.73,16.35,16.35,0,0,1-9.34-6.44,29.9,29.9,0,0,1-5.67-14.39A38.72,38.72,0,0,1,768,470.77a20.56,20.56,0,0,1,9.3-9.36A1.64,1.64,0,0,1,778.58,461.07Z"/><path class="cls-2" d="M894.54,422.94A28.35,28.35,0,0,0,893,413a25.88,25.88,0,0,0-10-13.83c-3.5-2.44-6.74-5.08-9-8.81a23.51,23.51,0,0,1-3.26-15.84c.09-.67.42-.85,1-1,4-.89,7.65.08,11.17,1.91,4.94,2.56,8.46,6.59,11.35,11.2a38.66,38.66,0,0,1,6.07,22,21,21,0,0,1-4.64,13.24A2.61,2.61,0,0,1,894.54,422.94Z"/><path class="cls-2" d="M866,376.9a28.79,28.79,0,0,0,2.93,13.38A26.42,26.42,0,0,0,878,401.05c2.89,2,5.67,4.07,7.63,7.06A24,24,0,0,1,889.83,425a1.34,1.34,0,0,1-1.25,1.36,16.33,16.33,0,0,1-11.15-2.08,29.9,29.9,0,0,1-11-10.84,38.66,38.66,0,0,1-6.16-23.31,20.58,20.58,0,0,1,4.68-12.35C865.17,377.43,865.33,377,866,376.9Z"/><path class="cls-2" d="M1104.91,495.76a28.47,28.47,0,0,0,2.6-9.71,25.88,25.88,0,0,0-3.49-16.7c-2.21-3.65-4.09-7.38-4.61-11.7a23.5,23.5,0,0,1,3.47-15.79,1.05,1.05,0,0,1,1.33-.48c4,.81,7,3.19,9.43,6.29,3.47,4.35,5,9.47,5.8,14.85a38.61,38.61,0,0,1-3.42,22.57,20.94,20.94,0,0,1-9.62,10.21A2.64,2.64,0,0,1,1104.91,495.76Z"/><path class="cls-2" d="M1097.58,442.07a28.85,28.85,0,0,0-2.77,13.43,26.5,26.5,0,0,0,3.94,13.55c1.84,3,3.53,6,4.1,9.55a24.06,24.06,0,0,1-3.06,17.08,1.33,1.33,0,0,1-1.69.73,16.35,16.35,0,0,1-9.34-6.44,29.9,29.9,0,0,1-5.67-14.39,38.72,38.72,0,0,1,3.88-23.81,20.56,20.56,0,0,1,9.3-9.36A1.64,1.64,0,0,1,1097.58,442.07Z"/><path class="cls-2" d="M1120.42,268.62a28.32,28.32,0,0,0-10,.74,25.87,25.87,0,0,0-14.63,8.78c-2.72,3.28-5.63,6.28-9.53,8.2a23.57,23.57,0,0,1-16.06,1.9c-.66-.15-.81-.49-.89-1.1-.55-4.05.73-7.61,2.85-11,3-4.7,7.28-7.87,12.12-10.36a38.62,38.62,0,0,1,22.44-4.18,20.92,20.92,0,0,1,12.8,5.74A2.54,2.54,0,0,1,1120.42,268.62Z"/><path class="cls-2" d="M1072.12,293.18a28.78,28.78,0,0,0,13.59-1.8,26.35,26.35,0,0,0,11.51-8.17c2.22-2.71,4.53-5.31,7.67-7a24.08,24.08,0,0,1,17.14-2.72,1.33,1.33,0,0,1,1.24,1.36,16.34,16.34,0,0,1-3,10.94,29.83,29.83,0,0,1-11.73,10.07,38.66,38.66,0,0,1-23.76,4.17,20.61,20.61,0,0,1-11.9-5.71C1072.59,294,1072.19,293.83,1072.12,293.18Z"/><path class="cls-2" d="M828.78,90.17a28.27,28.27,0,0,0,8.94-4.58,25.92,25.92,0,0,0,10-13.79c1.23-4.08,2.74-8,5.59-11.26a23.52,23.52,0,0,1,14-8c.66-.12.94.14,1.25.67,2.08,3.52,2.29,7.29,1.65,11.21-.91,5.49-3.64,10.09-7.13,14.26a38.72,38.72,0,0,1-19,12.6,21,21,0,0,1-14-.3A2.58,2.58,0,0,1,828.78,90.17Z"/><path class="cls-2" d="M863.7,48.74a28.77,28.77,0,0,0-11.82,6.95,26.29,26.29,0,0,0-7.41,12c-1,3.36-2.11,6.65-4.35,9.44a24,24,0,0,1-14.71,9.18,1.33,1.33,0,0,1-1.68-.77,16.31,16.31,0,0,1-1.49-11.24,29.92,29.92,0,0,1,6.88-13.85,38.68,38.68,0,0,1,20.26-13.09,20.64,20.64,0,0,1,13.19.62C862.94,48.14,863.38,48.17,863.7,48.74Z"/><path class="cls-2" d="M746.91,176.31a28.47,28.47,0,0,0,2.6-9.71A25.9,25.9,0,0,0,746,149.9c-2.21-3.65-4.09-7.38-4.61-11.7a23.52,23.52,0,0,1,3.47-15.79,1.05,1.05,0,0,1,1.33-.48c4,.82,7,3.19,9.43,6.29,3.47,4.36,5.05,9.47,5.8,14.86A38.62,38.62,0,0,1,758,165.65a21,21,0,0,1-9.62,10.21A2.63,2.63,0,0,1,746.91,176.31Z"/><path class="cls-2" d="M739.58,122.63a28.81,28.81,0,0,0-2.77,13.42,26.44,26.44,0,0,0,3.94,13.55c1.84,3,3.53,6,4.1,9.55a24,24,0,0,1-3.06,17.08,1.33,1.33,0,0,1-1.69.73,16.35,16.35,0,0,1-9.34-6.44,29.9,29.9,0,0,1-5.67-14.39,38.69,38.69,0,0,1,3.88-23.8,20.58,20.58,0,0,1,9.3-9.37A1.63,1.63,0,0,1,739.58,122.63Z"/><path class="cls-2" d="M1061.54,178.49a28.35,28.35,0,0,0-1.59-9.92,25.92,25.92,0,0,0-10-13.83c-3.5-2.44-6.74-5.08-9-8.81a23.5,23.5,0,0,1-3.26-15.84c.09-.66.42-.85,1-1,4-.88,7.65.08,11.17,1.91,4.94,2.56,8.46,6.59,11.35,11.2a38.66,38.66,0,0,1,6.07,22,21,21,0,0,1-4.64,13.24A2.56,2.56,0,0,1,1061.54,178.49Z"/><path class="cls-2" d="M1033,132.45a28.79,28.79,0,0,0,2.93,13.38,26.51,26.51,0,0,0,9.12,10.78c2.89,2,5.67,4.06,7.63,7a24,24,0,0,1,4.17,16.84,1.34,1.34,0,0,1-1.25,1.36,16.38,16.38,0,0,1-11.15-2.07,30,30,0,0,1-11-10.84,38.69,38.69,0,0,1-6.16-23.32,20.53,20.53,0,0,1,4.68-12.34C1032.17,133,1032.33,132.57,1033,132.45Z"/><path class="cls-2" d="M984.91,289.31a28.47,28.47,0,0,0,2.6-9.71A25.9,25.9,0,0,0,984,262.9c-2.21-3.65-4.09-7.38-4.61-11.7a23.52,23.52,0,0,1,3.47-15.79,1.05,1.05,0,0,1,1.33-.48c4,.82,7,3.19,9.43,6.29,3.47,4.36,5.05,9.47,5.8,14.86A38.62,38.62,0,0,1,996,278.65a21,21,0,0,1-9.62,10.21A2.63,2.63,0,0,1,984.91,289.31Z"/><path class="cls-2" d="M977.58,235.63a28.81,28.81,0,0,0-2.77,13.42,26.44,26.44,0,0,0,3.94,13.55c1.84,3,3.53,6,4.1,9.55a24,24,0,0,1-3.06,17.08,1.33,1.33,0,0,1-1.69.73,16.35,16.35,0,0,1-9.34-6.44,29.9,29.9,0,0,1-5.67-14.39,38.69,38.69,0,0,1,3.88-23.8,20.58,20.58,0,0,1,9.3-9.37A1.63,1.63,0,0,1,977.58,235.63Z"/><path class="cls-2" d="M1042.42,59.17a28.55,28.55,0,0,0-10,.74,25.93,25.93,0,0,0-14.63,8.78c-2.72,3.28-5.63,6.29-9.53,8.2a23.57,23.57,0,0,1-16.06,1.91c-.66-.15-.81-.5-.89-1.1-.55-4.06.73-7.62,2.85-11,3-4.71,7.28-7.88,12.12-10.36a38.63,38.63,0,0,1,22.44-4.19,21,21,0,0,1,12.8,5.74A2.54,2.54,0,0,1,1042.42,59.17Z"/><path class="cls-2" d="M994.12,83.73a28.9,28.9,0,0,0,13.59-1.79,26.46,26.46,0,0,0,11.51-8.18c2.22-2.71,4.53-5.31,7.67-7A24,24,0,0,1,1044,64a1.33,1.33,0,0,1,1.24,1.36,16.33,16.33,0,0,1-3,10.94,29.94,29.94,0,0,1-11.73,10.08,38.73,38.73,0,0,1-23.76,4.16,20.61,20.61,0,0,1-11.9-5.71C994.59,84.58,994.19,84.38,994.12,83.73Z"/><path class="cls-2" d="M1200.59,81.17a28.27,28.27,0,0,0,8.94-4.58,25.92,25.92,0,0,0,10-13.79c1.23-4.08,2.74-8,5.59-11.26a23.52,23.52,0,0,1,14-8c.66-.12.94.14,1.25.67,2.08,3.52,2.29,7.29,1.64,11.21-.9,5.49-3.64,10.09-7.12,14.26a38.7,38.7,0,0,1-19,12.6,21,21,0,0,1-14-.3A2.58,2.58,0,0,1,1200.59,81.17Z"/><path class="cls-2" d="M1235.5,39.74a28.8,28.8,0,0,0-11.81,6.95,26.29,26.29,0,0,0-7.41,12c-1,3.36-2.11,6.65-4.35,9.44a24,24,0,0,1-14.72,9.18,1.33,1.33,0,0,1-1.68-.77,16.37,16.37,0,0,1-1.48-11.24,29.92,29.92,0,0,1,6.88-13.85,38.68,38.68,0,0,1,20.26-13.09,20.64,20.64,0,0,1,13.19.62C1234.75,39.14,1235.19,39.17,1235.5,39.74Z"/><path class="cls-2" d="M1194.72,217.31a28.23,28.23,0,0,0,2.59-9.71,25.9,25.9,0,0,0-3.49-16.7c-2.2-3.65-4.08-7.38-4.61-11.7a23.58,23.58,0,0,1,3.48-15.79c.36-.57.73-.6,1.33-.48,4,.82,7,3.19,9.43,6.29,3.46,4.36,5,9.47,5.8,14.86a38.7,38.7,0,0,1-3.42,22.57,21,21,0,0,1-9.63,10.21A2.57,2.57,0,0,1,1194.72,217.31Z"/><path class="cls-2" d="M1187.39,163.63a28.81,28.81,0,0,0-2.77,13.42,26.44,26.44,0,0,0,3.94,13.55c1.83,3,3.53,6,4.1,9.55a24,24,0,0,1-3.06,17.08,1.33,1.33,0,0,1-1.69.73,16.32,16.32,0,0,1-9.34-6.44,29.9,29.9,0,0,1-5.67-14.39,38.69,38.69,0,0,1,3.87-23.8,20.6,20.6,0,0,1,9.31-9.37A1.62,1.62,0,0,1,1187.39,163.63Z"/><path class="cls-2" d="M1324.35,301.49a28.58,28.58,0,0,0-1.59-9.92,25.92,25.92,0,0,0-10-13.83c-3.5-2.44-6.74-5.08-9-8.81a23.56,23.56,0,0,1-3.26-15.84c.1-.66.43-.85,1-1,4-.88,7.65.08,11.17,1.91,4.94,2.56,8.46,6.59,11.35,11.2a38.65,38.65,0,0,1,6.06,22,21,21,0,0,1-4.63,13.24A2.56,2.56,0,0,1,1324.35,301.49Z"/><path class="cls-2" d="M1295.78,255.45a28.8,28.8,0,0,0,2.94,13.38,26.43,26.43,0,0,0,9.12,10.78c2.89,2,5.67,4.06,7.63,7.05a24.11,24.11,0,0,1,4.17,16.84,1.34,1.34,0,0,1-1.26,1.36,16.4,16.4,0,0,1-11.15-2.07,30,30,0,0,1-11-10.84,38.69,38.69,0,0,1-6.16-23.32,20.53,20.53,0,0,1,4.68-12.34C1295,256,1295.14,255.57,1295.78,255.45Z"/><path class="cls-2" d="M1411.72,204.31a28.23,28.23,0,0,0,2.59-9.71,25.9,25.9,0,0,0-3.49-16.7c-2.2-3.65-4.08-7.38-4.61-11.7a23.58,23.58,0,0,1,3.48-15.79c.36-.57.73-.6,1.33-.48,4,.82,7,3.19,9.43,6.29,3.46,4.36,5,9.47,5.8,14.86a38.7,38.7,0,0,1-3.42,22.57,21,21,0,0,1-9.63,10.21A2.57,2.57,0,0,1,1411.72,204.31Z"/><path class="cls-2" d="M1404.39,150.63a28.81,28.81,0,0,0-2.77,13.42,26.44,26.44,0,0,0,3.94,13.55c1.83,3,3.53,6,4.1,9.55a24,24,0,0,1-3.06,17.08,1.33,1.33,0,0,1-1.69.73,16.32,16.32,0,0,1-9.34-6.44,29.9,29.9,0,0,1-5.67-14.39,38.69,38.69,0,0,1,3.87-23.8,20.6,20.6,0,0,1,9.31-9.37A1.62,1.62,0,0,1,1404.39,150.63Z"/><path class="cls-2" d="M1414.23,50.17a28.51,28.51,0,0,0-10,.74,25.93,25.93,0,0,0-14.63,8.78c-2.72,3.28-5.63,6.29-9.53,8.2A23.57,23.57,0,0,1,1364,69.8c-.66-.15-.81-.5-.89-1.1-.55-4.06.73-7.62,2.84-11,3-4.71,7.29-7.88,12.12-10.36a38.68,38.68,0,0,1,22.45-4.19,21,21,0,0,1,12.8,5.74A2.6,2.6,0,0,1,1414.23,50.17Z"/><path class="cls-2" d="M1365.93,74.73a28.92,28.92,0,0,0,13.59-1.79,26.37,26.37,0,0,0,11.5-8.18c2.22-2.71,4.54-5.31,7.68-7A24,24,0,0,1,1415.83,55a1.34,1.34,0,0,1,1.25,1.36,16.33,16.33,0,0,1-3,10.94,30,30,0,0,1-11.73,10.08,38.73,38.73,0,0,1-23.76,4.16,20.58,20.58,0,0,1-11.9-5.71C1366.39,75.58,1366,75.38,1365.93,74.73Z"/><path class="cls-2" d="M1192.59,419.17a28.27,28.27,0,0,0,8.94-4.58,25.92,25.92,0,0,0,10-13.79c1.23-4.08,2.74-8,5.59-11.26a23.52,23.52,0,0,1,14-8c.66-.12.94.14,1.25.67,2.08,3.52,2.29,7.29,1.64,11.21-.9,5.49-3.64,10.09-7.12,14.26a38.7,38.7,0,0,1-19,12.6,21,21,0,0,1-14-.3A2.58,2.58,0,0,1,1192.59,419.17Z"/><path class="cls-2" d="M1227.5,377.74a28.8,28.8,0,0,0-11.81,6.95,26.29,26.29,0,0,0-7.41,12c-1,3.36-2.11,6.65-4.35,9.44a24,24,0,0,1-14.72,9.18,1.33,1.33,0,0,1-1.68-.77,16.37,16.37,0,0,1-1.48-11.24,29.92,29.92,0,0,1,6.88-13.85,38.68,38.68,0,0,1,20.26-13.09,20.64,20.64,0,0,1,13.19.62C1226.75,377.14,1227.19,377.17,1227.5,377.74Z"/><path class="cls-2" d="M498.72,773.31a28.23,28.23,0,0,0,2.59-9.71,25.9,25.9,0,0,0-3.49-16.7c-2.2-3.65-4.08-7.38-4.61-11.7a23.58,23.58,0,0,1,3.48-15.79c.36-.57.73-.6,1.33-.48,4,.82,7,3.19,9.43,6.29,3.46,4.36,5,9.47,5.8,14.86a38.7,38.7,0,0,1-3.42,22.57,21,21,0,0,1-9.63,10.21A2.57,2.57,0,0,1,498.72,773.31Z"/><path class="cls-2" d="M491.39,719.63a28.81,28.81,0,0,0-2.77,13.42,26.44,26.44,0,0,0,3.94,13.55c1.83,3,3.53,6,4.1,9.55a24,24,0,0,1-3.06,17.08,1.33,1.33,0,0,1-1.69.73,16.32,16.32,0,0,1-9.34-6.44,29.9,29.9,0,0,1-5.67-14.39,38.69,38.69,0,0,1,3.87-23.8,20.6,20.6,0,0,1,9.31-9.37A1.62,1.62,0,0,1,491.39,719.63Z"/><path class="cls-2" d="M1261.35,520.49a28.58,28.58,0,0,0-1.59-9.92,25.92,25.92,0,0,0-10-13.83c-3.5-2.44-6.74-5.08-9-8.81a23.56,23.56,0,0,1-3.26-15.84c.1-.66.43-.85,1-1,4-.88,7.65.08,11.17,1.91,4.94,2.56,8.46,6.59,11.35,11.2a38.65,38.65,0,0,1,6.06,22,21,21,0,0,1-4.63,13.24A2.56,2.56,0,0,1,1261.35,520.49Z"/><path class="cls-2" d="M1232.78,474.45a28.8,28.8,0,0,0,2.94,13.38,26.43,26.43,0,0,0,9.12,10.78c2.89,2,5.67,4.06,7.63,7.05a24.11,24.11,0,0,1,4.17,16.84,1.34,1.34,0,0,1-1.26,1.36,16.4,16.4,0,0,1-11.15-2.07,30,30,0,0,1-11-10.84,38.69,38.69,0,0,1-6.16-23.32,20.53,20.53,0,0,1,4.68-12.34C1232,475,1232.14,474.57,1232.78,474.45Z"/><path class="cls-2" d="M1360.72,519.31a28.23,28.23,0,0,0,2.59-9.71,25.9,25.9,0,0,0-3.49-16.7c-2.2-3.65-4.08-7.38-4.61-11.7a23.58,23.58,0,0,1,3.48-15.79c.36-.57.73-.6,1.33-.48,4,.82,7,3.19,9.43,6.29,3.46,4.36,5,9.47,5.8,14.86a38.7,38.7,0,0,1-3.42,22.57,21,21,0,0,1-9.63,10.21A2.57,2.57,0,0,1,1360.72,519.31Z"/><path class="cls-2" d="M1353.39,465.63a28.81,28.81,0,0,0-2.77,13.42,26.44,26.44,0,0,0,3.94,13.55c1.83,3,3.53,6,4.1,9.55a24,24,0,0,1-3.06,17.08,1.33,1.33,0,0,1-1.69.73,16.32,16.32,0,0,1-9.34-6.44,29.9,29.9,0,0,1-5.67-14.39,38.69,38.69,0,0,1,3.87-23.8,20.6,20.6,0,0,1,9.31-9.37A1.62,1.62,0,0,1,1353.39,465.63Z"/><path class="cls-2" d="M1430.23,360.17a28.51,28.51,0,0,0-10,.74,25.93,25.93,0,0,0-14.63,8.78c-2.72,3.28-5.63,6.29-9.53,8.2A23.57,23.57,0,0,1,1380,379.8c-.66-.15-.81-.5-.89-1.1-.55-4.06.73-7.62,2.84-11,3-4.71,7.29-7.88,12.12-10.36a38.68,38.68,0,0,1,22.45-4.19,21,21,0,0,1,12.8,5.74A2.6,2.6,0,0,1,1430.23,360.17Z"/><path class="cls-2" d="M1381.93,384.73a28.92,28.92,0,0,0,13.59-1.79,26.37,26.37,0,0,0,11.5-8.18c2.22-2.71,4.54-5.31,7.68-7a24,24,0,0,1,17.13-2.73,1.34,1.34,0,0,1,1.25,1.36,16.33,16.33,0,0,1-3,10.94,30,30,0,0,1-11.73,10.08,38.73,38.73,0,0,1-23.76,4.16,20.58,20.58,0,0,1-11.9-5.71C1382.39,385.58,1382,385.38,1381.93,384.73Z"/><path class="cls-2" d="M1187,650.3a28.48,28.48,0,0,0,8.94-4.58,25.86,25.86,0,0,0,10-13.79c1.23-4.08,2.74-8,5.59-11.26a23.52,23.52,0,0,1,14-8c.66-.12.94.14,1.25.67,2.08,3.51,2.29,7.29,1.65,11.21-.91,5.49-3.64,10.09-7.13,14.26a38.63,38.63,0,0,1-19,12.59,21,21,0,0,1-14-.29A2.62,2.62,0,0,1,1187,650.3Z"/><path class="cls-2" d="M1221.89,608.87a28.81,28.81,0,0,0-11.82,6.94,26.37,26.37,0,0,0-7.41,12c-1,3.36-2.11,6.65-4.34,9.44a24.12,24.12,0,0,1-14.72,9.18,1.34,1.34,0,0,1-1.68-.77,16.32,16.32,0,0,1-1.49-11.24,30,30,0,0,1,6.88-13.86,38.66,38.66,0,0,1,20.26-13.08,20.64,20.64,0,0,1,13.19.62C1221.13,608.27,1221.57,608.3,1221.89,608.87Z"/><path class="cls-2" d="M1181.11,786.44a28.69,28.69,0,0,0,2.59-9.71,25.88,25.88,0,0,0-3.49-16.7c-2.21-3.65-4.09-7.38-4.61-11.7a23.56,23.56,0,0,1,3.47-15.79c.36-.57.74-.6,1.34-.48,4,.82,6.95,3.19,9.42,6.29,3.47,4.35,5.05,9.47,5.8,14.85a38.6,38.6,0,0,1-3.42,22.57,20.94,20.94,0,0,1-9.62,10.21A2.6,2.6,0,0,1,1181.11,786.44Z"/><path class="cls-2" d="M1173.77,732.76a28.81,28.81,0,0,0-2.77,13.42,26.41,26.41,0,0,0,4,13.55c1.83,3,3.52,6,4.09,9.55a24.06,24.06,0,0,1-3.06,17.08,1.33,1.33,0,0,1-1.69.73,16.35,16.35,0,0,1-9.34-6.44,30,30,0,0,1-5.66-14.39,38.66,38.66,0,0,1,3.87-23.81,20.56,20.56,0,0,1,9.3-9.36A1.6,1.6,0,0,1,1173.77,732.76Z"/><path class="cls-2" d="M1298.73,774.62a28.35,28.35,0,0,0-1.59-9.92,25.83,25.83,0,0,0-10-13.83c-3.5-2.44-6.73-5.08-9-8.81a23.5,23.5,0,0,1-3.26-15.84c.09-.67.42-.85,1-1,4-.89,7.65.08,11.17,1.91,4.94,2.56,8.47,6.59,11.35,11.2a38.66,38.66,0,0,1,6.07,22,21,21,0,0,1-4.63,13.24A2.7,2.7,0,0,1,1298.73,774.62Z"/><path class="cls-2" d="M1270.17,728.58A28.79,28.79,0,0,0,1273.1,742a26.42,26.42,0,0,0,9.12,10.77c2.89,2,5.68,4.07,7.64,7.06a24,24,0,0,1,4.16,16.84,1.34,1.34,0,0,1-1.25,1.36,16.33,16.33,0,0,1-11.15-2.08,30,30,0,0,1-11-10.83,38.71,38.71,0,0,1-6.16-23.32,20.65,20.65,0,0,1,4.68-12.35C1269.36,729.11,1269.53,728.7,1270.17,728.58Z"/><path class="cls-2" d="M1398.11,773.44a28.69,28.69,0,0,0,2.59-9.71,25.88,25.88,0,0,0-3.49-16.7c-2.21-3.65-4.09-7.38-4.61-11.7a23.56,23.56,0,0,1,3.47-15.79c.36-.57.74-.6,1.34-.48,4,.82,6.95,3.19,9.42,6.29,3.47,4.35,5.05,9.47,5.8,14.85a38.6,38.6,0,0,1-3.42,22.57,20.94,20.94,0,0,1-9.62,10.21A2.6,2.6,0,0,1,1398.11,773.44Z"/><path class="cls-2" d="M1390.77,719.76a28.81,28.81,0,0,0-2.77,13.42,26.41,26.41,0,0,0,4,13.55c1.83,3,3.52,6,4.09,9.55a24.06,24.06,0,0,1-3.06,17.08,1.33,1.33,0,0,1-1.69.73,16.35,16.35,0,0,1-9.34-6.44,30,30,0,0,1-5.66-14.39,38.66,38.66,0,0,1,3.87-23.81,20.56,20.56,0,0,1,9.3-9.36A1.6,1.6,0,0,1,1390.77,719.76Z"/><path class="cls-2" d="M1400.61,619.3a28.32,28.32,0,0,0-10,.74,25.81,25.81,0,0,0-14.62,8.78c-2.73,3.28-5.63,6.28-9.54,8.2a23.51,23.51,0,0,1-16.06,1.9c-.66-.14-.81-.49-.89-1.1-.54-4.05.73-7.61,2.85-11,3-4.71,7.28-7.88,12.12-10.37a38.7,38.7,0,0,1,22.44-4.18,21,21,0,0,1,12.81,5.74A2.59,2.59,0,0,1,1400.61,619.3Z"/><path class="cls-2" d="M1352.32,643.86a28.76,28.76,0,0,0,13.58-1.8,26.35,26.35,0,0,0,11.51-8.17c2.22-2.71,4.53-5.31,7.67-7a24.08,24.08,0,0,1,17.14-2.72,1.33,1.33,0,0,1,1.24,1.36,16.34,16.34,0,0,1-3,10.94,29.94,29.94,0,0,1-11.73,10.08A38.71,38.71,0,0,1,1365,650.7a20.61,20.61,0,0,1-11.9-5.71C1352.78,644.71,1352.38,644.51,1352.32,643.86Z"/><path class="cls-2" d="M1077.21,556.81a28.46,28.46,0,0,0,5.22,8.58,25.93,25.93,0,0,0,14.49,9c4.16.93,8.16,2.14,11.64,4.75a23.57,23.57,0,0,1,9,13.42c.16.65-.08.95-.58,1.3-3.35,2.33-7.11,2.82-11.06,2.46-5.54-.5-10.33-2.89-14.74-6.06a38.66,38.66,0,0,1-14-18.07,21,21,0,0,1-.73-14A2.53,2.53,0,0,1,1077.21,556.81Z"/><path class="cls-2" d="M1121.08,588.6a28.7,28.7,0,0,0-7.79-11.27,26.35,26.35,0,0,0-12.52-6.52c-3.42-.74-6.79-1.61-9.73-3.64a24,24,0,0,1-10.24-14,1.34,1.34,0,0,1,.65-1.73,16.35,16.35,0,0,1,11.1-2.3,29.87,29.87,0,0,1,14.32,5.85,38.72,38.72,0,0,1,14.54,19.24,20.64,20.64,0,0,1,.34,13.2C1121.63,587.8,1121.63,588.25,1121.08,588.6Z"/><path class="cls-2" d="M941,560.92a28.29,28.29,0,0,0,9.87,1.88,25.9,25.9,0,0,0,16.4-4.71c3.48-2.46,7.06-4.61,11.33-5.45a23.51,23.51,0,0,1,16,2.31c.6.32.66.69.58,1.3-.52,4-2.67,7.16-5.59,9.85-4.08,3.78-9.07,5.73-14.38,6.88a38.63,38.63,0,0,1-22.77-1.76,21,21,0,0,1-10.88-8.85A2.57,2.57,0,0,1,941,560.92Z"/><path class="cls-2" d="M994,549.68a28.86,28.86,0,0,0-13.59-1.78,26.4,26.4,0,0,0-13.23,4.93c-2.84,2-5.75,3.95-9.22,4.78a24.08,24.08,0,0,1-17.26-1.8,1.33,1.33,0,0,1-.85-1.64,16.31,16.31,0,0,1,5.74-9.78,30,30,0,0,1,13.94-6.71,38.74,38.74,0,0,1,24,2.12,20.62,20.62,0,0,1,10,8.6A1.65,1.65,0,0,1,994,549.68Z"/><path class="cls-2" d="M961.4,677.37a28.57,28.57,0,0,0,9.78-2.31,25.92,25.92,0,0,0,13.06-11c2.18-3.67,4.57-7.09,8.13-9.59a23.53,23.53,0,0,1,15.56-4.41c.67,0,.88.36,1.05.95,1.18,3.91.48,7.63-1.08,11.27-2.2,5.12-6,8.93-10.34,12.14a38.69,38.69,0,0,1-21.51,7.67,21,21,0,0,1-13.55-3.65A2.67,2.67,0,0,1,961.4,677.37Z"/><path class="cls-2" d="M1005.23,645.51a28.73,28.73,0,0,0-13.13,3.91A26.42,26.42,0,0,0,982,659.3c-1.77,3-3.64,6-6.48,8.13a24.07,24.07,0,0,1-16.49,5.39,1.35,1.35,0,0,1-1.45-1.15,16.33,16.33,0,0,1,1.26-11.27,29.79,29.79,0,0,1,10-11.8,38.61,38.61,0,0,1,22.8-7.85,20.56,20.56,0,0,1,12.66,3.76C1004.64,644.74,1005.06,644.88,1005.23,645.51Z"/><path class="cls-2" d="M969.85,776.39a28.32,28.32,0,0,0,9.87,1.87,25.83,25.83,0,0,0,16.4-4.7c3.48-2.46,7.06-4.61,11.33-5.45a23.54,23.54,0,0,1,16,2.31c.59.31.65.69.57,1.29-.52,4.06-2.67,7.17-5.58,9.86-4.09,3.78-9.08,5.73-14.39,6.88a38.76,38.76,0,0,1-22.76-1.76,21,21,0,0,1-10.89-8.86A2.58,2.58,0,0,1,969.85,776.39Z"/><path class="cls-2" d="M1022.85,765.15a28.82,28.82,0,0,0-13.58-1.78A26.39,26.39,0,0,0,996,768.29c-2.85,2.05-5.75,4-9.23,4.79a24.06,24.06,0,0,1-17.25-1.8,1.34,1.34,0,0,1-.86-1.64,16.41,16.41,0,0,1,5.74-9.79,30,30,0,0,1,13.94-6.7,38.67,38.67,0,0,1,24,2.12,20.63,20.63,0,0,1,10,8.59A1.65,1.65,0,0,1,1022.85,765.15Z"/><path class="cls-2" d="M1123.76,767.61a28.41,28.41,0,0,0-1.47-9.94,25.87,25.87,0,0,0-9.83-13.94c-3.47-2.48-6.68-5.16-8.87-8.91a23.51,23.51,0,0,1-3.08-15.88c.1-.67.44-.84,1-1,4-.84,7.65.17,11.15,2,4.91,2.62,8.39,6.69,11.22,11.33a38.61,38.61,0,0,1,5.82,22.08,21,21,0,0,1-4.79,13.19A2.59,2.59,0,0,1,1123.76,767.61Z"/><path class="cls-2" d="M1095.73,721.24a28.79,28.79,0,0,0,2.79,13.42,26.45,26.45,0,0,0,9,10.88c2.87,2,5.63,4.13,7.55,7.14a24.06,24.06,0,0,1,4,16.89,1.34,1.34,0,0,1-1.27,1.34,16.4,16.4,0,0,1-11.12-2.2,29.89,29.89,0,0,1-10.91-11,38.63,38.63,0,0,1-5.89-23.38,20.53,20.53,0,0,1,4.82-12.29C1094.92,721.76,1095.09,721.36,1095.73,721.24Z"/><path class="cls-2" d="M647,280.15a28.44,28.44,0,0,0,9.24-3.94,25.89,25.89,0,0,0,11-13c1.52-4,3.29-7.77,6.37-10.84a23.53,23.53,0,0,1,14.58-7c.67-.07.92.21,1.2.76,1.82,3.65,1.77,7.43.85,11.29-1.28,5.42-4.34,9.82-8.11,13.73a38.65,38.65,0,0,1-19.88,11.23,21,21,0,0,1-14-1.28A2.57,2.57,0,0,1,647,280.15Z"/><path class="cls-2" d="M684.78,241.27a28.78,28.78,0,0,0-12.28,6.1,26.47,26.47,0,0,0-8.23,11.46c-1.23,3.29-2.57,6.49-5,9.12A24,24,0,0,1,644,276.07a1.35,1.35,0,0,1-1.63-.88,16.42,16.42,0,0,1-.69-11.32,30,30,0,0,1,7.84-13.34,38.65,38.65,0,0,1,21.12-11.63,20.61,20.61,0,0,1,13.12,1.54C684.06,240.62,684.5,240.68,684.78,241.27Z"/><path class="cls-2" d="M650.64,465.54a28.44,28.44,0,0,0,3.26-9.5,25.85,25.85,0,0,0-2.31-16.9c-1.94-3.8-3.55-7.65-3.77-12a23.48,23.48,0,0,1,4.57-15.51,1,1,0,0,1,1.36-.38c3.94,1.09,6.71,3.67,9,6.94,3.16,4.58,4.37,9.79,4.75,15.22a38.6,38.6,0,0,1-5,22.27,20.93,20.93,0,0,1-10.31,9.51A2.57,2.57,0,0,1,650.64,465.54Z"/><path class="cls-2" d="M647.09,411.48a28.61,28.61,0,0,0-3.7,13.19,26.3,26.3,0,0,0,3,13.79c1.61,3.11,3.09,6.26,3.41,9.82a24,24,0,0,1-4.25,16.82,1.34,1.34,0,0,1-1.74.61,16.3,16.3,0,0,1-8.86-7.08,29.91,29.91,0,0,1-4.64-14.75,38.62,38.62,0,0,1,5.53-23.47,20.62,20.62,0,0,1,9.94-8.7A1.62,1.62,0,0,1,647.09,411.48Z"/><path class="cls-2" d="M749.8,412a28.48,28.48,0,0,0-.89-10,25.86,25.86,0,0,0-9-14.5c-3.32-2.68-6.37-5.54-8.34-9.42a23.52,23.52,0,0,1-2.14-16c.14-.65.49-.81,1.09-.9,4-.61,7.63.62,11,2.69,4.75,2.9,8,7.16,10.54,12a38.63,38.63,0,0,1,4.5,22.38A20.9,20.9,0,0,1,751,411.07,2.58,2.58,0,0,1,749.8,412Z"/><path class="cls-2" d="M724.54,364.07a28.72,28.72,0,0,0,2,13.56A26.49,26.49,0,0,0,734.87,389c2.74,2.18,5.37,4.45,7.12,7.57a24.06,24.06,0,0,1,3,17.09,1.34,1.34,0,0,1-1.35,1.27,16.37,16.37,0,0,1-11-2.85,30.06,30.06,0,0,1-10.25-11.59,38.69,38.69,0,0,1-4.51-23.69,20.66,20.66,0,0,1,5.54-12C723.69,364.55,723.89,364.15,724.54,364.07Z"/><path class="cls-2" d="M1007,407.8a28.46,28.46,0,0,0,3.27-9.5,25.92,25.92,0,0,0-2.31-16.9c-1.94-3.8-3.56-7.65-3.78-12a23.54,23.54,0,0,1,4.58-15.51,1,1,0,0,1,1.36-.38c3.94,1.09,6.71,3.67,9,6.94,3.15,4.58,4.37,9.79,4.75,15.22a38.67,38.67,0,0,1-5,22.27,21,21,0,0,1-10.32,9.51A2.53,2.53,0,0,1,1007,407.8Z"/><path class="cls-2" d="M1003.47,353.74a28.78,28.78,0,0,0-3.71,13.19,26.55,26.55,0,0,0,3,13.8c1.62,3.1,3.1,6.25,3.42,9.81a24.07,24.07,0,0,1-4.25,16.82,1.33,1.33,0,0,1-1.74.61,16.38,16.38,0,0,1-8.87-7.07,30,30,0,0,1-4.64-14.76,38.7,38.7,0,0,1,5.54-23.47,20.59,20.59,0,0,1,9.93-8.7A1.64,1.64,0,0,1,1003.47,353.74Z"/><path class="cls-2" d="M846.33,183.22a28.28,28.28,0,0,0-10.05,0,25.88,25.88,0,0,0-15.2,7.74c-3,3.08-6.06,5.87-10.09,7.51a23.56,23.56,0,0,1-16.15.77c-.65-.19-.78-.55-.82-1.16-.25-4.08,1.27-7.55,3.61-10.74,3.3-4.49,7.82-7.35,12.82-9.49a38.63,38.63,0,0,1,22.68-2.59,20.89,20.89,0,0,1,12.37,6.62A2.52,2.52,0,0,1,846.33,183.22Z"/><path class="cls-2" d="M796.43,204.33a28.78,28.78,0,0,0,13.68-.84,26.35,26.35,0,0,0,12-7.35c2.4-2.54,4.89-5,8.15-6.45a24,24,0,0,1,17.28-1.51,1.34,1.34,0,0,1,1.15,1.45A16.38,16.38,0,0,1,845,200.32a29.91,29.91,0,0,1-12.41,9.23,38.71,38.71,0,0,1-24,2.49,20.68,20.68,0,0,1-11.48-6.53C796.83,205.21,796.45,205,796.43,204.33Z"/><g class="cls-3"><rect class="cls-1" width="1484" height="818"/></g></svg>