<svg id="Layer_1" data-name="Layer 1" xmlns="http://www.w3.org/2000/svg" viewBox="0 0 363.18 576.91"><defs><style>.cls-1{fill:#fefefe;}.cls-2{fill:#ebe7e0;}.cls-3{fill:#2a7f01;}.cls-4{fill:#da8103;}.cls-5{fill:#dbdbdb;}.cls-6{fill:#bebebe;}.cls-7{fill:#b9b9b9;}.cls-8{fill:#421908;}</style></defs><path class="cls-1" d="M260.34,382.11c.4-.31.88-.63.2-1.08-.09-.06-.49.33-.74.52l-.91,1.09c-.86.25-1.95,0-2.38,1.09-.08.21.09.74.26.8,1.37.46,1.9-.63,2.53-1.49Zm-7.06,166.72c.19,1.87-.41,4.48,2.88,3.85s7-2.19,7.82-5c.7-2.38-3.14-2.37-5.36-2.86-2.77-.62-3.11,1.78-4.38,3a3.08,3.08,0,0,0-2.47-3.66c-4.89-1.48-5.15,4-8.17,5.43-.29.14-.22,1.21-.2,1.84,0,.21.44.63.59.59,2.23-.55,3.39,1.85,5.42,1.93.84,0,1.83.48,1.39-.92C250,550.63,252.36,550.19,253.28,548.83ZM131,471.5a2.39,2.39,0,0,0-1.17-3.18,2,2,0,0,0-1.83,0c-1.24,1-.71,2.44-.41,3.69.45,1.93,1,3.84,1.6,5.73.3,1,.92,2,2.07,1.72,1.58-.34,1-1.74,1.07-2.85C132.36,474.79,129.54,473.86,131,471.5ZM171,27.63c-.17-.81.26-2.48-1.38-2.38-2.42.15-1.21,2.64-2,3.9-.54.84-.08,1.65,1,1.65C170.41,30.79,171,29.55,171,27.63ZM196.74,470.2c-1.72-.12-1.33,1.17-1.45,2-.22,1.56,0,3,1.9,3.33a1.48,1.48,0,0,0,1.73-1.36A4.39,4.39,0,0,0,196.74,470.2Z"/><path class="cls-2" d="M46.14,53.13c-4.7-1.36-5-3-1.52-8.27a6.35,6.35,0,0,1-1.19-.71C38,39.08,33.5,38.69,28.65,45.4c-1.39,1.92-2.5,2.32-.69,4.23s1.14,3.17-1.1,4.08c-2.09.86-3.6.8-3.81-1.94-.14-1.9-.39-2.94-2.55-1.2-1.19,1-2-.65-2.47-1.66-1.17-2.46-4.17-3.86-5.66-3.23-3.52,1.49-5.09-2.57-8.1-1.9-1.13.25-.72-1.08-.54-1.86.66-3-1-4.24-3.6-4.75C.12,26.35.3,15.51,0,4.69-.1.93.85-.53,4.61.17A13.79,13.79,0,0,0,7.1.19C8.44,6.2,4.66,11.3,3.92,17a19.21,19.21,0,0,0,1.46,9.88c1.86,4.93,6,8.27,8.81,12.5,2.31,3.41,10.14,2.27,16.36-1.48,5.84-3.53,12-2.47,16.3,2.89,1.32,1.64,3.28,2.93,3.32,5.37l1,1-.06-.1C50.78,50.18,48.63,51.8,46.14,53.13Z"/><path class="cls-3" d="M262.32,126.08c.71-4.8,5-5.24,7.7-4.19,6.68,2.61,13.45,5.31,19.45,9.41.42.29.47,1.12.7,1.7-.39.71-.12,1.09.62,1.24h-.06c.33,2.84-2.68,5.18-1.26,8.32L294,139c.71-.52,1.64-.88,1.57-2h0c3.67-1.48,6.84-.45,10.31,1.23S313,141,317.08,140c9.15-2.31,14.56,4.28,20.12,9.42,5.17,4.79,9.53,10.2,17.64,9.22a4.31,4.31,0,0,1,4.59,3.18c3.27,9.37,5.82,19,1.32,28.47-2.43,5.1-5.08,10.55-10,14.1a14.79,14.79,0,0,0-6.47,9.92c-.43,2.55-1.92,4.94-3,7.36a4.05,4.05,0,0,1-2.38,2.31c-1.84.72-3.18-4.05-3.9-1-.64,2.67-2.06,5.74-1,8.76.85,2.42.09,5.08.7,7.31,2.12,7.77.29,15.45.27,23.16a6.11,6.11,0,0,1-1.42,4.08,7.82,7.82,0,0,0-1.89,6.05c1.25,7.22-2.15,12.82-5.77,18.43a2.44,2.44,0,0,0-.58,1.34c.75,6.59-4.32,10.47-7.56,14.92-1.72,2.38-6.21,2.36-9.19,1.83-4.8-.85-8.47-.48-11.8,3.46-1.65,2-4.14,3-6.94,3.76-4.91,1.37-8.4,5.51-12.09,9-1.36,1.28-1.82,3.57-4.33,3.35,0,.86-1.42.42-1.26,2a145.21,145.21,0,0,0,2.65,16.71c1,4.46.28,8.35-3.51,11.59-2.43,2.09-3.12,5.39-4.08,8.42-.51,1.58.06,3.73-2.07,4.61l-.58-1.1c-2.9-.94-4.24-1.38-5.81,2.89a116.27,116.27,0,0,0-5,19.84,9.68,9.68,0,0,1-3.57,5.25c-1.84-1.38-2.4-3.36-1.12-5.1,2.59-3.53-.07-4.44-2.4-5.67l-1.49-1.88,0,0-1-1h0a2.11,2.11,0,0,0-2-1.09l0,0-2-1.18.1.09-1.1-1.05.07.08-1.15-1,0,0a2.11,2.11,0,0,0-2-1.11l.07.05c-1-1.35-2.51-1.67-4-2.05l0,.09-1-1.13h.06c-.91-2.35-4.65.29-5.09-2.89l0,.05-1.06-1.11.08.08-1.16-1,0,0-1.83-1.28.08.06-1.05-1,0,0c-1.23-1.62-2.6-2.15-4.24-.56-.32-.06-.63-.11-.95-.15l.07-1.89-.08,0,1.05-1.06-.05.05,1.1-1,0,.05c1.93-1.55,2.08-4,3.07-6l0,.07a4.47,4.47,0,0,0,1.94-3.1l-.05,0,1.05-1.05,0,.05c2.07,0,1.66-1.79,2.1-3l-.09,0,1.06-1.08-.07.07L228.3,350l-.06.1,7-5.06,0,0c5.49-3.3,1.92-7.39,1-11.25l.06,0c-.08-2.07-.8-3.61-3.16-3.77-4.35.29-2.78-2.8-2.84-5,1.11-1.81.8-3.84.82-5.78,0-3.12-2.34-4.72-4.48-3.36-4.27,2.72-4.11-.31-4.94-2.83-3.64-11.13-3.82-11.24-12.81-10.14-3.9-1-8.19-1.72-6.43-7.49.94-3.11-.66-5.31-2.33-7.55.11-3.59-2.18-7.2.09-10.78.8-3.07,2.61-6,1-9.34l.06.05a2.29,2.29,0,0,0-1-2.07l0,.07c.16-2.92-1.76-3.69-4.12-4l0,.05-1-1.07.08.07-1-2.05,0,.06a12.45,12.45,0,0,1,0-3.45c.6-2.16.27-2.92-2.23-2.83-3.28.12-6.59-.33-9.88-.54-.65-4-3.82-7-3.18-11.74.37-2.84.3-7.36-3.56-9.48-2.56-3.07-6.16-1.44-9.26-2.06l.13.08-1-1.15.1,0-1.13-1,.07,0c-1.68-1.69-4-2.21-6.07-3l.1.11c-.56-2.46-3-2.17-4.6-3.07-2.21-1.25-5.24.1-7.24-2.09h-.07l-1.13-1,.05.09a1.22,1.22,0,0,0-1.3-1l-.34.07-1.54-1.48.1-.26-.21-.19-.91-1.08.06.05c-.11-.8-.1-1.66-1-2.08l.05.05c.21-3.86-1.91-7.6-.49-11.59.37-1-.27-3.46-1.54-3.11-3.38.92-7.48-.65-10.16,2.73h0l-1.27,1.83.14-.1c-1.44.52-3.25.29-4.07,2l.07,0-1,1.12.11-.09c-3.5-.56-4.24,3.44-6.94,4.21-3.29.12-6.08-3.2-9.47-1.7-3.92,1.73-4.71-.52-5-3.52a28.35,28.35,0,0,1-.1-5c.06-.82.5-1.68-.23-2.3-1-.84-2.18-.05-2.67.46-3.82,4-7.13,4.87-10-1-.54-1.13-2-1-3.14-1.24-.81-.14-2-.29-2-1.14.21-4.17-3.22-6.38-4.89-9.51-2.53-4.76-3.4-9.27,1.43-13.23,1.12-.91,1.1-2.19,1.16-3.59.4-9.29,7.06-13.62,14-14.42l1.14-.67v.07c1.74-1,3.37-1.68,5.43-.36,1.85,1.17,2.73.2,2.35-1.89.37-1.08.71-2.16,1.1-3.23,1.41-3.94,0-8.28,1.23-12.08,2-6.06,1.86-11.32-2.4-16.44-2.39-2.88-1-7.64,1.91-8.15,1.33-.24,3.59.57,3.51-1.61-.06-1.85-2.33-1.3-3.65-1.76-.13-1.9-2.37-3.56-.63-5.67l-.09,0c4.55.9,9.09,1.76,13.4-.9a4.58,4.58,0,0,0,2.86-1.91,3.12,3.12,0,0,1,2.62,3.92c-.78,3.6,1.58,4.23,4,5.1l-.08,0,1.09,1h0c1.84,1.87,3.59,1.31,5.3-.21l0,0c2.41,3.17,3.89,2,5-1.06h0l1.06-1,0,.06c.71-.13,1.5-.13,1.67-1.1,2.59-2,5.89-3,8.06-5.8.94-1.21,3.13-1.7,2.78-3.64-.31-1.72-2.09-1.08-3.33-1.27S147.14,93,146.87,92l-.78-2h0c-.12-2.2.13-4.51-1.86-6.14l0,0-1.06-1.09h.11c-.16-3,1.61-1.28,2.75-1.13,3.84-1.23,8,8.84,11.65-.36.06-.16.61-.13.93-.17,6.06-.85,12-1.77,14.65-8.61.18-.46,1.8-.38,2.74-.55,1.52,1.81-3,4.68,1.07,6l.26.18.26-.18c.67.92,0,2.42,1.38,3l-.1-.08c0,1,0,2,0,3L179,84,178,85.06c-1.31,2.88-3.05,5.68-1.74,9.06-.08.8-.12,1.58.75,2l0,0c.69,2.17.08,5,3.05,6l0,0,1,1.1h-.08c.54,1.48,1.43,2.33,3.12,1.77l1,.06c2.2,1.4,2.54-.46,3.16-1.81l-.1,0c2.41-.87,5.29-.69,7-3.1l-.07,0,1.45-1,.23.15.24-.12.45.14.46,0v-.12c2.12,1.76,4.73.86,7.06,1s2.52-1.48,1.1-3.19h0l.14-1.88-.12.13c2.63,1.32,5.21-1.13,7.84-.11v0l1.1.81L218,97.21c3.51.24,6.94-2.52,10.57-.22.28.18,1.79-.92,2.21-1.71,2.5-4.64,4.85-9.37,7.25-14.07l1.22-.31c-.13.39-.27.78.39.66,0,0,0-.47-.07-.71a1.08,1.08,0,0,0,.37-.54L241,81c1.36,5.56,2.67,11.14,4.13,16.68.23.87,1,2.14,1.72,2.26,5.71,1,3.34,4.25,2.21,7.21-3.2,4.4-7.59,7.83-10.26,12.67l.13.09c-1,.35-1.27,1.21-1.48,2.11-.3,4.49-4.66,4.62-7.82,6.69,3.46,1.17,6.18,1.47,8.53-1.05l5.66-3.29c.22,3.17-.25,7.52,3.25,7.43,3.92-.1,9.2,3.12,12-2.73l2-.19C263.69,129,263.33,127.69,262.32,126.08Z"/><path class="cls-2" d="M208.88,303c9-1.1,9.17-1,12.81,10.14.83,2.52.67,5.55,4.94,2.83,2.14-1.36,4.52.24,4.48,3.36,0,1.94.29,4-.82,5.78l-.55-3.06c-2.86,5.84.77,11.88-.65,17.81-2.49,1.32-5.1,2.54-5,6h-.94c-1-1.28-2-1.28-3,0-.89.17-2-.33-2.49.87-.07.18.48.84.82.9,1.36.25,1.59-.72,1.66-1.77l3,0c.34.74.69.71,1,0,1.75-1.93,4.39-3.12,5-6,2.72-.58,1.82-2.77,1.9-4.44.08-1.85-.14-3.73,2-4.6l3.16,2.93-.06,0c-.25,3.76.23,7.58-1,11.25l0,0c-3.77-.29-6,1.53-7,5.06l.06-.1-1.09,1.06.07-.07-1.06,1.08.09,0c-2.26-.12-2.19,1.41-2.1,3l0-.05L223.19,356l.05,0c-2.23,0-2.14,1.54-1.94,3.1l0-.07c-2.68,1.17-3.19,3.45-3.07,6l0-.05-1.1,1,.05-.05L216.2,367l.08,0c-.89.31-1.08,1-1.13,1.85a2.06,2.06,0,0,0-1,2.07l-1,1-.51,9.51a9.35,9.35,0,0,0,.6-9.42l1-1c1.11-.08,2.31.13,3.07-1l4.15-.37,0,.05a.91.91,0,0,0,1.05,1l-.08-.06c.09,1.18.93,1.27,1.83,1.28l0,0,1.16,1-.08-.07,1.06,1.1,0-.05c-.34,4.56,2.86,2.88,5.09,2.89h-.06l1,1.12,0-.09c.09,3.11,2.35,2,4,2.05l-.07-.05c.3,1.05,1.11,1.16,2,1.11l0,0,1.15,1-.07-.08,1.1,1.05-.1-.09c.22,1.11,1.05,1.2,2,1.18l0,0c.34.92,1.11,1.08,2,1.09h0l1,1,0,0c.06,1,.37,1.74,1.49,1.88,2.33,1.23,5,2.14,2.4,5.67-1.28,1.74-.72,3.72,1.12,5.1-1.62,4.35-3.28,9.6-8.37,9.84-4.11.19-8.8,1.39-12.79-1.09s-9.46-1.52-12.77-5.52c-1.48-2.34-2.49-4.79-1.86-7.65,2.49-1.15,2.45-2.28,0-3.39-.43-1.61.6-3.57-1.15-4.87-.14-.73-.28-1.46-.43-2.19-.13.09-.34.14-.38.26a1.61,1.61,0,0,0,.76,2c.19,1.71-.61,3.59.9,5.07l-.06,2.74c-1.31,2.9-1.8,5.69.92,8.13-.88,3.82,1.74,5.34,4.51,6.59,4,1.8,7.39,3.82,6.76,9.11-.25,2.14,1.48,3.23,3.29,3.88a3.88,3.88,0,0,1,2.74,4.23c-.19,6.47-5.89,13.66-12.37,15s-12.88,3.46-19.64,1.75c-2.34-.6-2.31,1.24-1.42,2.18,3.45,3.63,1.24,8.55,3.2,12.58,1.22,2.51-1.55,3.26-3.5,3.62-3.77.69-7.24-.49-10.6-2.06-1-.49-2.1-1.38-3.14-.24a2.49,2.49,0,0,0,0,3.25c2.14,2.86,2.27,6.68,5.3,9.41,1.15,1,4.36,4.89,1.6,8.5-1.22,1.59-.16,3.77.21,5.76.63,3.38,1.46,7-3.8,8.16-3.32.73-5.06,3.77-5.45,7.1-.35,3,1.68,4.72,4,6.37,2.72,1.95,5.21,3.73,8.89,3.88,3.84.16,5.25,5.1,2.68,8.49-1.3,1.72-3.4,3.09-4,5-1.7,5.07-.73,11-5.73,15-.7.56.59,2.69.91,4,1,4.11,4.79,5.17,7.71,7.84-2.14.82-4.83.59-4.75,3.54l0,0a17,17,0,0,0-7.05,2l-1.07,0-2.88,0-.07-1.15c-2-2.6-6.7.27-8-3.87a2.14,2.14,0,0,0,2-.91h13.83v-1.11H175.26l0,0-1-1,0,0-1.13-.9a1.71,1.71,0,0,0-1.9-.94c0-1.17.3-2.41-1-3.17a1.52,1.52,0,0,0-.18-.36c-.05-.06-.18,0-.27-.07l.43.44c0,1.09,0,2.17,0,3.26l-3-.45c-1.81-1.37-1.85,0-1.91,1.25-2.66-.69-3-4.39-6-4.69-.74-.08-.57-1,.08-1.48a1.74,1.74,0,0,0,.24-2.63c-1.42-1.74-1.66,1-1.77.79-1-1.91-1.87-3.93-2.77-5.92-.65-3.17,3.73,0,2.65-1.63-2-3,.51-4.3,1.57-5.92,1.16-1.77.7-3.05,0-4.56,1.32-1,1.31-2,0-3a2,2,0,0,0-2-1,19,19,0,0,1,.75-4.76c1.14-4.75,1.23-9.45-2.8-13.19,0-.67,0-1.33,0-2,.85-.48,1.77-.94,1.52-2.16a.84.84,0,0,0-.72-.38c-1.19.51-.68,1.63-.82,2.53-.52.25-1.43.43-1.49.77-.21,1.06.75,1.11,1.51,1.23,1,5.41,2.25,10.79,1.09,16.36-.1.47.57,1.1.89,1.66a1.9,1.9,0,0,0,2,1v3c-1.64,3-1.2,7.53-6.1,8-.87-1.22.42-5.29-3.52-2.58-.44.3-1.42-1.24-.93-2.27a4.89,4.89,0,0,0-.49-5.09l.16-.18h4.8c-2.68-1.8-3-5.67-6.88-4,.08-1.72-3.22-1.35-2.22-3.8.76-1.86-.83-2.72-2.22-3.23-2.81-1-5.7-1.87-8.56-2.79l0,0c2.55-.87,2.57-4.95,6-4.74-1.31,2.52.33,3.54,2.22,4.5.84.43,1.79,1.61,2.48.35s1.89-2.82.1-4.45c-1.14-1.05-.05-2.33.55-3.13,2.46-3.28-.51-2.41-2-2.72-1.61-3.09-.54-6.61-2.1-10a27.47,27.47,0,0,1-2.27-12.83c1.32-.93,1.36-1.93.15-3,.26-1.78-4.31-2.11-1.41-4.69-1.3-1-3.54-1.39-4.2-.63-3.79,4.38-5.39.05-6.48-1.91-1.82-3.3-3.07-7.23-1.75-11a8.83,8.83,0,0,0-1.51-8.89c-2.45-3.08-2.78-7.12-5.26-10.12a2.83,2.83,0,0,1-.41-2.36c3.74-10.17,3.13-20.91,3.76-31.42a43.6,43.6,0,0,0-4.44-21c-1.33-2.86-2.32-5.85-.63-9.08a4.19,4.19,0,0,0,.11-3.41c-4.48-8.22.25-16.7-.88-25-1.26-9.28.26-18.85-2.82-28a3.66,3.66,0,0,1,.23-2.34c2.26-5.49,1.73-11,.49-16.61-1.41-6.29-1.47-12.84-3.83-19-.51-1.31-.14-3-.17-4.46.76-.41.81-.73-.13-.91-3.34,0-5.89-2.35-7.42-4.48-4.77-6.66-12.1-9-18.76-12.56-7.66-4.07-14.75-8.87-20.06-15.89-.59-.78-1.53-1.73-1.44-2.5,1-8.59-5.57-14.08-9.2-20.38-4.56-7.89-7.95-16.31-12.51-24.12s-7.36-17.26-16.84-21.31c-.89-.38-2.13-1.34-1.16-2.2,2.24-2,.65-3.38-.2-5.15-3.41-7.12-2.46-10.08,4.64-15.36.44.74.77.78.94-.15,2.94-3.4,3.41-7.41,2.88-11.72-.24,0-.57-.1-.74,0-1.59,1.09-1.58,4.51-4.63,3.39-2.74-1-1.13-3.73-1.83-5.4-2.43-5.73,2.29-9.42,3.47-14,.55-2.13,2.39-3.83,1.47-6.44-.63-1.78,1.22-2.07,2.31-2.65,2.6-1.38,5.24-2.68,7.86-4,3.48,3.36,9.21,3.87,11.31,9,2.71,1.8,5.39.69,8.07-.1h-.08a2.6,2.6,0,0,0,2.57,2l1.46,1.68c1.74,2.78.33,5.78.25,8.92,4.87-2.54,1.17-6,1.62-8.89,3.49-1.25,5.3,2.16,5.67,3.71.92,3.82,4.16,4.6,6.38,6.69.26,1.52-.73,3.75,2.14,3.8h0c1.41,1.42-.32,4.74,3,5l0,0,1.11,1c1.48-.1,3.41.36,4.38-.39,5.07-3.93,9.7-1.59,14.43.51l.17,4h0c-.94.33-1.08,1.09-1,2h0a1.76,1.76,0,0,0-1,2v0c-3,1.57-1.16,5.07-2.89,7.14v-.07l-1.14.67c-6.91.8-13.57,5.13-14,14.42-.06,1.4,0,2.68-1.16,3.59-4.83,4-4,8.47-1.43,13.23,1.67,3.13,5.1,5.34,4.89,9.51,0,.85,1.19,1,2,1.14,1.14.2,2.6.11,3.14,1.24,2.83,5.87,6.14,5,10,1,.49-.51,1.69-1.3,2.67-.46.73.62.29,1.48.23,2.3a28.35,28.35,0,0,0,.1,5c.33,3,1.12,5.25,5,3.52,3.39-1.5,6.18,1.82,9.47,1.7,3.43.44,4.57-2.91,6.94-4.21l-.11.09,1-1.12-.07,0c1.81.21,3.3-.19,4.07-2l-.14.1c1.14-.11,1.26-.93,1.27-1.83h0a28.08,28.08,0,0,0,2.9-.4c6.44-1.51,7-1,7.19,5.48.07,2.4-1.3,5.43,2.1,6.89l-.05-.05c-.07.89.05,1.68,1,2.08l-.06-.05.91,1.08.21.19-.1.26a1.9,1.9,0,0,0,1.54,1.48l.34-.07,1.3,1-.05-.09a1,1,0,0,0,1.13,1h.07c-.25,3.38,2.77,3,4.39,3.11,2.72.15,5,1.18,7.45,2l-.1-.11c1.14,2.79,3.4,3.31,6.07,3l-.07,0,1.13,1-.1,0c.33.39.67.77,1,1.15l-.13-.08c2.75,2.2,6.3.79,9.26,2.06,3.86,2.12,3.93,6.64,3.56,9.48-.64,4.75,2.53,7.77,3.18,11.74.88,1.75,2.48,2.11,4.16,1.84,4.17-.67,7,.56,7.94,5l0-.06c-.05.88.07,1.69,1,2.05l-.08-.07c.34.36.68.72,1,1.07l0-.05c.79,1.94,2.81,2.63,4.12,4l0-.07c-.08.91,0,1.72,1,2.07l-.06-.05c-.45,3.1-1.62,6.12-1,9.34-2.27,3.58,0,7.19-.09,10.78.34,2.95,1.41,6,.85,8.81-1.21,6,1.72,6.77,6.42,6.17A7.5,7.5,0,0,1,208.88,303ZM121.21,277l-.5-.41.4.51,1,1c.35,3.34-2.79,7,1,10l.53,2.16c.13-.09.34-.16.38-.28a1.6,1.6,0,0,0-.78-2c-.21-3.35,1.54-6.9-1-10Zm-2-2.93-.23.38.2-.4.24-.37Zm53,32.92-.45-.41.41.46.46.45ZM33.21,156l-.52-.42.4.55,1,1c.7,1.05,1.4,1.06,2.09,0a2,2,0,0,0,1-2c.56-.29,1.52-.48,1.62-.88C40,149,41.69,144,45.83,140A6.8,6.8,0,0,0,40,145.19c-.93,3.31-1.9,6.61-2.84,9.91-.88.37-1,1.15-1,2H34.2Zm94,196.91c-.25.36-.51.71-.74,1.08a3.56,3.56,0,0,0,.36.26c.14-.44.28-.87.41-1.31s.52-.75.76-1.14l-.39-.26Zm3-31.93a2,2,0,0,0,2-1l1.35-.43a3.24,3.24,0,0,0-.28-.37c-.38.23-.75.49-1.12.74a2,2,0,0,0-2,1l-1,1c-1.47,1.34-1.34,2.72-.08,4.11a3.57,3.57,0,0,1,0,.8,1.81,1.81,0,0,0-.7,2.06c0,.12.23.2.36.3l.6-2.14c.67-.41.67-.82,0-1.21l-.09-3.88Zm-15.06-99,.76-.94-.5-.33c-.1.42-.19.84-.28,1.26l-.78,1.13.41.26Zm67,93.86-.53-.39.41.51c.38.24.75.5,1.14.72,0,0,.2-.23.3-.36ZM207.13,329l.41,1.35a2.84,2.84,0,0,0,.36-.28c-.23-.38-.48-.74-.73-1.11l-.42-1.34-.4.26Zm-72.89,101c0-1.11.2-2.29-1-3,0-1.64,0-3.28.05-4.92l.4-.51-.53.39a3.47,3.47,0,0,0,0,5.09c0,1.11-.17,2.27,1,3l.2,3.59C135.62,431.9,135.38,430.85,134.24,429.92Zm4,8a1.64,1.64,0,0,0-.18-.35c-.05-.06-.18-.05-.28-.07l.44.44.18,3.15C139.32,439.91,139.56,438.81,138.24,437.91Zm39.91-125,1.1.79.25-.4-1.34-.39c-.09-.78-.16-1.58-1.25-1.54a.44.44,0,0,0-.32.31C176.56,312.82,177.4,312.85,178.15,313Zm12-35a1.59,1.59,0,0,0,2,.77c.12,0,.18-.26.27-.39l-2.24-.41c-1.25-1.24-2.55-1.43-4.59,0Zm13,48c.38.24.76.49,1.15.72,0,0,.17-.25.27-.38l-1.36-.42c-1.47-2.51-3.91-2.17-6.16-2.41A8.84,8.84,0,0,0,203.12,326Zm-69,88c0,1.88.67,3.5,1.94,6,.18-3,.38-5-1.84-6.1,0-3,0-5.95,0-8.93,2.63-2.54,1.47-8.2-2.05-10-.12-.62-.08-1.37-.92-1.49-.16,0-.57.39-.54.55.13.83.86.82,1.49.91a30.69,30.69,0,0,1,2,10C134.07,407.94,129.9,411,134.17,414Zm4,46,.5.4-.41-.5c-.14-3.33,1.58-6.87-1.07-9.93V442c-1.56,2.56-.76,4.42-1.93,6.12-1.46,2.14.94,1.54,2,1.79C137.53,453.26,136.27,456.76,138.2,460Zm16-157-.51-.42.44.5c-.05,1.9.41,3.52,2.47,4.4a10,10,0,0,0,1.6-5.41l.4-.5-.47.42C157,303.09,156,304.44,154.19,302.94Zm-22.06,40c-4.62,0-4,3.18-3.49,6.24.55-2.45,2.68-3.92,3.62-6.13.25-.38.5-.76.72-1.16,0,0-.24-.2-.36-.3Zm78,3c1.64,1.49,3.3,2.68,6.42,0h-6.41a2.42,2.42,0,0,0-2.6-1c-3.47.59-4.17-1.06-3.39-4,1.27-1.24,1.43-2.56,0-4.63v4.6a3,3,0,0,0-1.82,3.67c.47,1.77,2.08,1.27,3.34,1.32C207.15,346,208.65,345.93,210.15,345.94ZM141.27,466.88c-.23-1,.44-2.17-.63-3.08a2.2,2.2,0,0,0,.57,3.12c.5,2.73-1,5.81,1.76,8.15C141.12,472.55,145.37,469,141.27,466.88ZM114.18,237.05c3.14-3.9.59-7.48-.23-11.16-1.79,3.81.79,7.38.18,11.12-.25.38-.51.75-.75,1.14l.38.26Zm36.07,250.83c1,1.49,2.59.88,4,1.05-.64,4.11-5.21.24-6.59,3.27,2.14.83,4.14,2.75,6.32.86,1.09-.95,2.2-2.66.33-4.21-1.07-1.49-2.65-.79-4-1,.1-4.22-1.86-7.4-5-10-.38-.26-.76-.52-1.15-.76l-.26.39,1.38.4C145.66,481.87,147.8,485,150.25,487.88Zm-37.19-228c.7,2.88-5,4.82-1.3,8.41.43-1.14.84-2.83,1.09-2.81,5.7.54,1.57-2.23,1.23-3.62a9.4,9.4,0,0,0-.83-1.8c.72-.19,1.55-.28,1.46-1.33a.46.46,0,0,0-.3-.32C113.36,258.38,113.25,259.19,113.06,259.92ZM167.15,301c-1.88-1.81-3.89-.81-5.89,0h5.9c0,.83.07,1.7.93,2.12.46.23,1,.14,1-.54.17-4.79,2.12-9.54.32-14.39C169.13,292.53,169.22,296.94,167.15,301Zm-140-149.84-.05,0c0-1,0-2,0-3a1.46,1.46,0,0,0,.36-.16c0-.06,0-.19.06-.28l-.44.42c-2.71.2-3.21,2-2.91,4.21.25,1.76.39,1.75,7.27,1A6.66,6.66,0,0,0,27.18,151.13ZM131.26,306.91c-.14-1.82.18-3.79-1.76-5.19-.65,2.26.25,3.86,1.6,5.32.33.54.78,1.6,1,1.55,5.19-1.28,4,2.43,4.1,5.15,0,.76.12,1.5.21,2.53,2.81-3.8.79-7.58.86-11.23l.39-.54-.52.41C135.41,306.32,133.65,307.51,131.26,306.91ZM116.18,256c2.41-.79,2.61-1.9,1.64-4.4-1.06-2.73-4.4-4.32-3.76-7.8.07-.39-.43-1.09-.66-.42-.87,2.53-5-.82-5.08,2.92,0,1.43.08,2.5,1.41,3.4,2.53,1.7,6.56,1.94,6.48,6.33l-.47.44c.1,0,.23,0,.28-.08A1.68,1.68,0,0,0,116.18,256Zm52.54,284.11c-1.8-1.73-3.65-1.24-5.51-.49C165,541.13,166.88,539.4,168.72,540.08Zm4-259.56c2.6,1.06,4.54-.07,6.78-1.07C176.93,278.41,175,279.5,172.74,280.52ZM146.17,301.2l.13.52h4.93v-.53Zm25.71-19.4a13.32,13.32,0,0,0-1.52,2.09c-.23.54-.34,1.33.56,1.37.3,0,.81-.55.93-.94A11.12,11.12,0,0,0,171.88,281.8Zm-110.66-153-.75-1c-.31.3-.77.56-.88.93s.36.63.56,1ZM131.13,337.5l-.41-.82c-.16.26-.43.52-.45.78s.24.55.37.83Zm50.67-59c.31.16.58.41.85.4s.54-.26.81-.41c-.27-.14-.54-.4-.8-.4S182.11,278.32,181.8,278.48Zm25.31,55-.42-.82c-.16.26-.44.52-.46.78s.24.55.38.82Zm-10.38-52.8c-.11,0-.28,0-.33.08s-.05.27-.07.4l.55-.11Zm-57.58,21.58-.33.23.6.27c0-.11.12-.27.08-.33S139.27,302.28,139.15,302.22Z"/><path class="cls-2" d="M177.61,78.12l-.26.18-.26-.18c-.4-2,.72-4.28-1.07-6-.94.17-2.56.09-2.74.55-2.61,6.84-8.59,7.76-14.65,8.61-.32,0-.87,0-.93.17-3.61,9.2-7.81-.87-11.65.36-1.16-2.71-3.62-1.54-5.72-2.39.33,2.22.75,3.72,3,3.52h-.11L144.25,84l0,0c0,2.25-1,4.77,1.86,6.14h0l.78,2c.27.91.17,2.13,1.44,2.33s3-.45,3.33,1.27c.35,1.94-1.84,2.43-2.78,3.64-2.17,2.79-5.47,3.76-8.06,5.8a1.61,1.61,0,0,0-1.67,1.1l0-.06-1.06,1h0c-1.5,1.11-4.07-2.84-5,1.06l0,0-5.3.21h0a1,1,0,0,0-1.09-1l.08,0c-2.41-4.1-1.4-9.52-5-13.16-2.61-1.52-6.16-2.89-1-5.73,1.55-.85.89-1.91.23-2.9-3.89-5.86-4.08-11.87-.83-18.06.65-1.24,2-2.74.76-3.93s-2.81.22-4.21.23c-4.16,0-9.25,2.78-11.84-2.88-1.89-4.12-5.19-4.42-8.84-4.1-2.79.25-5.57,1-8.09-.91,0-1.44-.11-2.77-2-2.77l0,0c-1-2.68,2.6-5.39-.07-8.06l0,.09c0-1-.26-1.78-1.36-2-1.5-1.47-.43-4.82-3.73-5a1,1,0,0,1-.66-1.53c3.36-6.26,3.39-14.4,10.48-18.54a44.46,44.46,0,0,0,1.41,5.79c.8,2.13.64,3.79-1.09,5.36-3.8,3.48-1.62,7.21.75,9.65s4-.84,4.86-2.7c1.06-2.31-.17-4.57-1.5-6.53C93,26.43,94.48,24,97.27,22.7c4-1.82,8.1-3.94,12.79-3.56,3.75.3,6.94,1.24,7.1,5.92.11,3.21,2.56,3.39,4.67,2.79,5.52-1.54,10.5-1.66,15.37,2.18,4,3.13,7.74-.17,11-2,3.81-2.16,7.64-1.86,11.66-1.79-.17,1.47-3.5.23-2.33,2.55,1.08,2.14,2.36,4.39,5,4.92.7.15,1.55.06,2.35.19,2.27.37,5.71.43,5.82,2.61.14,2.55-.53,6-4.23,7.12,2.48,3.09,5.09.45,7.41.16s3.9-.47,4.29,2.3a3.16,3.16,0,0,0-2.12,2l-1,1-1.34.44c.09.13.26.38.27.38.38-.24.75-.5,1.13-.76l1-1a3,3,0,0,0,3-2c6.68,2.19,9.16,5.5,9,11.93-1.13.94-1.26,2-.19,3.59.09-1.44.16-2.5.23-3.55,2.47,0,5,.69,6,2.8,2.65,5.87,8.41,5,13,6a15.77,15.77,0,0,0,6.73-.75c2.55-.84,4.35,0,6.39.86L220,70.06h0a1.9,1.9,0,0,0-1,2l0,0c-.9.4-1,1.2-1,2l0,0c-1.44,2.9-2.06,5.7,1,8l0,0a1.82,1.82,0,0,0,1,2h0v4l0,0c-1.76,1.39-.83,3.33-1,5l0,0c-.92.38-1,1.17-1,2l0,0h-3l-1.09.07v0c-2.68-4-5.25-.7-7.85.11l.12-.13c-1.25.54-1.25,1.17-.14,1.88h0c-1.84,4.06-5.53,1.11-8.16,2.16v.12c-.2-.92-.52-.85-.91-.1l-.24.12-.23-.15-1.45,1,.07,0a8.32,8.32,0,0,0-7,3.1l.1,0a2.73,2.73,0,0,0-3.16,1.81l-1-.06c-.18-2.1-1.66-1.92-3.12-1.77H181l-1-1.1,0,0c-.67-2.18-.39-4.85-3.05-6l0,0a2.06,2.06,0,0,0-.75-2c-1.31-3.38.43-6.18,1.74-9.06L179,84l-.13.08c1.52-1,1.44-2,0-3l.1.08C178.94,80,179.25,78.6,177.61,78.12ZM193.08,85l-1-1c0-3.3,0-6.6,0-9.91l3.58-.26c-1.65-1.16-2.71-1-3.66.17a11.46,11.46,0,0,0,0,10.09l1,1,.46,1.35c.12-.1.38-.27.37-.28C193.59,85.78,193.33,85.4,193.08,85ZM169,59.05c-1.16.92-1.35,2-.21,3.62.12-1.45.2-2.49.28-3.53l2.22-.48c-.09-.14-.15-.35-.27-.39A1.61,1.61,0,0,0,169,59.05Zm4.11-4c-.1-1-.2-2.08-.34-3.5-1.13,1.61-.89,2.68.15,3.66l.57,2.25c.37-.22,1-.35,1.09-.67C175.17,55.35,174.08,55.21,173.13,55Zm-5.7,13.14a12.82,12.82,0,0,0,.53-2.21c0-.59,0-1.38-.86-1.38s-1,.7-.87,1.34A14.23,14.23,0,0,0,167.43,68.14Zm29.7,3.3c1.13-.14.89-.92.87-1.48a3.33,3.33,0,0,0-.49-1.12,6.47,6.47,0,0,0-.95,1.55C196.48,70.68,196.94,71.11,197.13,71.44Z"/><path class="cls-4" d="M90.78,18.07c-7.09,4.14-7.12,12.28-10.48,18.54A1,1,0,0,0,81,38.14c3.3.22,2.23,3.57,3.73,5,.31.78.41,1.69,1.36,2l0-.09c.87,2.68-2.47,5.4.07,8.06l0,0,2,2.77c2.52,2,5.3,1.16,8.09.91,3.65-.32,7,0,8.84,4.1,2.59,5.66,7.68,2.88,11.84,2.88,1.4,0,3.1-1.34,4.21-.23s-.11,2.69-.76,3.93c-3.25,6.19-3.06,12.2.83,18.06.66,1,1.32,2-.23,2.9-5.19,2.84-1.64,4.21,1,5.73.94,1.92-.35,3-1.55,4.14a4.59,4.59,0,0,1-2.85,1.91c-4.57-1.14-9,.43-13.41.9l.09,0c-3.21,2.27-2.62,4.12.63,5.67,1.32.46,3.59-.09,3.65,1.76.08,2.18-2.18,1.37-3.51,1.61-2.88.51-4.3,5.27-1.91,8.15,4.26,5.12,4.37,10.38,2.4,16.44-1.23,3.8.18,8.14-1.23,12.08-.39,1.07-.73,2.15-1.1,3.23-1-2.26-5-1.52-4.89-4.89v0a1.87,1.87,0,0,0,1-2h0a1.84,1.84,0,0,0,1-2h0c1.89-1.42,2.21-2.78-.17-4-4.73-2.1-9.36-4.44-14.43-.51-1,.75-2.9.29-4.38.39l-1.11-1,0,0c-1.18-1.56.65-4.93-3-5h0c-.57-1.35-.21-3.22-2.14-3.8-2.22-2.09-5.46-2.87-6.38-6.69-.37-1.55-2.18-5-5.67-3.71l-1.87,0-1.46-1.68c-.49-1.14-1.09-2.15-2.57-2h.08c-2.72-2.88-5.37.31-8.07.1-2.1-5.1-7.83-5.61-11.31-9-.34-1.11-3.68-2.09-.22-3.35,1.64-.59,1.29-1.56,1-2.73-.43-1.61.49-2.41,1.84-3a14.66,14.66,0,0,0,8.45-15,70.05,70.05,0,0,1,0-16.75c.59-4.16-3.51-6.42-2.73-10.22,2.49-1.33,4.64-3,5-6.06,1.89-1,1.18,2.2,3.08,1.6-2.32-6.16,3.39-8.18,6.49-11.22a8.43,8.43,0,0,0,2.69-4.54c.69-2.75.75-5.84,3.41-7.95,1.89-1.51,1.67-1.75,4.66-.2.36.19,1.23.22,1.27.1,2.46-6.44,10.21-2.92,14-7.49a23.94,23.94,0,0,1,5.78-5c1.73-1,3.2-1.33,4.23.39,1.24,2.07-1,2.38-2.11,3.13A43.8,43.8,0,0,1,90.78,18.07Z"/><path class="cls-2" d="M238,81.21c-2.4,4.7-4.75,9.43-7.25,14.07-.42.79-1.93,1.89-2.21,1.71-3.63-2.3-7.06.46-10.57.22,0-.72,0-1.45,0-2.17l0,0a2,2,0,0,0,1-2l0,0c1.7-1.4.8-3.33,1-5l0,0c1.42-1.34,1.54-2.68,0-4h0a1.93,1.93,0,0,0-1-2l0,0c-.09-2.71-1.51-5.25-1-8l0,0a2.05,2.05,0,0,0,1-2l0,0a1.8,1.8,0,0,0,1-2h0c1.4.09,1.94-.71,2-2C230.24,69,234.09,75.14,238,81.21Z"/><path class="cls-2" d="M201.28,573.84c-1.25-2.05-3.47-.28-5-1.35,1.48-4,4.6-1.73,7.31-1.68-1.73-2-3.94-2.6-6.31-3-2.69-.49-4.33-1.58-1.2-3.95.71-.53,1.38-1.12.82-2a1.87,1.87,0,0,0-1.61-.73c-7,2.1-5-1.3-3.05-4.84.21-.36,0-1,0-1.46l0,0c6.44-.17,9.47,5.36,14.06,8.3,6.61,4.24,13.24,8.6,21.48,9.51-4.07,2.19-8.35,1.49-12.65,1.16.38,1.45,2.51.71,2.34,2.53-1.3.78-3.41.72-3.95-.12-3.35-5.25-8.1-2.17-12.28-2.44Z"/><path class="cls-2" d="M256,117.09c5.45.27,6.14,1.26,4.3,6.16-.46,1.24-1,2.44-1.52,3.66a17.85,17.85,0,0,1-10.69,3c-1.68-.1-3.59-1.21-2.78-2.5,1.51-2.38.45-4.67.25-6.67-.37-3.81,1.32-4,3.95-3.39C251.75,117.86,253.93,118.91,256,117.09Z"/><path class="cls-5" d="M256,117.09c-2.09,1.82-4.27.77-6.49.29-2.63-.56-4.32-.42-3.95,3.39.2,2,1.26,4.29-.25,6.67-.81,1.29,1.1,2.4,2.78,2.5a17.85,17.85,0,0,0,10.69-3c.07.71.15,1.42.23,2.13-2.77,5.85-8,2.63-12,2.73-3.5.09-3-4.26-3.25-7.43l-5.66,3.29c.72-1.42,1.39-2.87,2.17-4.26,1.06-1.91.51-3.05-1.53-3.58,2.67-4.84,7.06-8.27,10.26-12.67C248.25,112.62,252.64,114.51,256,117.09Z"/><path class="cls-2" d="M253.28,548.83c-.92,1.36-3.27,1.8-2.48,4.24.44,1.4-.55.95-1.39.92-2-.08-3.19-2.48-5.42-1.93-.15,0-.58-.38-.59-.59,0-.63-.09-1.7.2-1.84,3-1.38,3.28-6.91,8.17-5.43a3.08,3.08,0,0,1,2.47,3.66l0-.05-1.06,1.05Z"/><path class="cls-2" d="M254.24,547.86c1.27-1.26,1.61-3.66,4.38-3,2.22.49,6.06.48,5.36,2.86-.83,2.81-4.56,4.38-7.82,5s-2.69-2-2.88-3.85l-.07,0,1.06-1.05Z"/><path class="cls-2" d="M142.62,495.69c1.45.31,4.42-.56,2,2.72-.6.8-1.69,2.08-.55,3.13,1.79,1.63.61,3.15-.1,4.45s-1.64.08-2.48-.35c-1.89-1-3.53-2-2.22-4.5C137.61,497.62,140.94,497.17,142.62,495.69Z"/><path class="cls-2" d="M131,471.5c-1.43,2.36,1.39,3.29,1.33,5.1,0,1.11.51,2.51-1.07,2.85-1.15.26-1.77-.74-2.07-1.72-.59-1.89-1.15-3.8-1.6-5.73-.3-1.25-.83-2.68.41-3.69a2,2,0,0,1,1.83,0A2.39,2.39,0,0,1,131,471.5Z"/><path class="cls-2" d="M184.15,556.89l1.07,0c.32.75,1.08,1.64.89,2.23-.69,2.19,3.38,3.87,1.06,5.55-1.88,1.37-4.32-.45-6.84-1.23C181.54,561,185.08,560.12,184.15,556.89Z"/><path class="cls-2" d="M159.27,521.88c.75,1.51,1.21,2.79,0,4.56-1.06,1.62-3.53,2.9-1.57,5.92,1.08,1.67-3.3-1.54-2.65,1.63-2.14-.66-3.31-1.79-2-4.11,4.9-.5,4.46-5,6.1-8Z"/><path class="cls-5" d="M294,139l-4.51,3.56c-1.42-3.14,1.59-5.48,1.26-8.32C293.44,134.71,292.22,137.86,294,139Z"/><path class="cls-2" d="M181.2,555.72c0,.38.05.76.07,1.15-.93,2.9-5.51,1.15-5.57,5.57C172.22,554.48,178.36,556.77,181.2,555.72Z"/><path class="cls-2" d="M171,27.63c0,1.92-.56,3.16-2.44,3.17-1,0-1.5-.81-1-1.65.81-1.26-.4-3.75,2-3.9C171.23,25.15,170.8,26.82,171,27.63Z"/><path class="cls-6" d="M264.56,370.58l.58,1.1c0,3.15-.14,6.2-4.46,8.56Z"/><path class="cls-2" d="M196.74,470.2a4.39,4.39,0,0,1,2.18,4,1.48,1.48,0,0,1-1.73,1.36c-1.92-.3-2.12-1.77-1.9-3.33C195.41,471.37,195,470.08,196.74,470.2Z"/><path class="cls-5" d="M214.38,394.15c-.63,2.85.38,5.3,1.86,7.64l-1.32.08c-2.73-2.44-2.24-5.23-.93-8.13A5,5,0,0,1,214.38,394.15Z"/><path class="cls-5" d="M138.4,469.91c1.21,1.06,1.17,2.06-.15,3C136.91,471.83,136.87,470.83,138.4,469.91Z"/><path class="cls-5" d="M262.32,126.08c1,1.61,1.37,2.91-1.31,2.77A3,3,0,0,1,262.32,126.08Z"/><path class="cls-6" d="M259.3,383c-.63.86-1.16,1.95-2.53,1.49-.17-.06-.34-.59-.26-.8.43-1.09,1.52-.84,2.38-1.09C259,382.78,259.16,382.91,259.3,383Z"/><path class="cls-5" d="M222,68.09c-.08,1.26-.62,2.06-2,2l.12-3.08Z"/><path class="cls-2" d="M170.27,543.85c1.28.76,1,2,1,3.17-.27.56-.58.64-1,.1,0-1.09,0-2.17,0-3.26Z"/><path class="cls-5" d="M179.06,46.14a3,3,0,0,1-3,2v0a3.16,3.16,0,0,1,2.12-2A2.53,2.53,0,0,1,179.06,46.14Z"/><path class="cls-2" d="M165.34,547.92c.06-1.29.1-2.62,1.91-1.25C167,547.68,166.21,547.86,165.34,547.92Z"/><path class="cls-2" d="M175.25,550.94a2.14,2.14,0,0,1-2,.91.9.9,0,0,1-.12-.64l1-1.35h1.15l0,0Z"/><path class="cls-2" d="M174.13,549.86l-1,1.35c-.87-.85-1.2-1.71,0-2.56l1.17.21,0,0Z"/><path class="cls-7" d="M148.2,519.94l-1.29-.52c.11-.12.28-.36.31-.34.39.2.76.45,1.14.68Z"/><path class="cls-6" d="M259.8,381.55c.25-.19.65-.58.74-.52.68.45.2.77-.2,1.08Z"/><path class="cls-6" d="M258.89,382.64c.3-.36.61-.72.91-1.09l.54.56-1,.93C259.16,382.91,259,382.78,258.89,382.64Z"/><path class="cls-5" d="M27.06,145c-.17.93-.5.89-.94.15C26.43,145.11,26.75,145.05,27.06,145Z"/><path class="cls-5" d="M295.55,137l-.83,0c.31-.85.56.17.84,0Z"/><path class="cls-5" d="M290.79,134.24c-.74-.15-1-.53-.62-1.24C290.37,133.41,290.58,133.82,290.79,134.24Z"/><path class="cls-7" d="M239.57,80.85c0,.24.09.7.07.71-.66.12-.52-.27-.39-.66Z"/><path class="cls-7" d="M133.28,505.91l-.43.44c0-.1,0-.24.05-.29a1.28,1.28,0,0,1,.35-.18Z"/><path class="cls-7" d="M241,81l-1.05-.66C240.76,79.77,241,80.13,241,81Z"/><path class="cls-4" d="M51.17,47.17l-1-1C50.68,46.32,51.58,46.11,51.17,47.17Z"/><path class="cls-5" d="M174.28,548.86l-1.17-.21a5.34,5.34,0,0,0,0-.69Z"/><path class="cls-5" d="M109.07,269.12c.94.18.89.5.13.91C109.16,269.73,109.12,269.42,109.07,269.12Z"/><path class="cls-6" d="M201.24,573.8l-.16.36.2-.32Z"/><path class="cls-6" d="M140.28,212c-3.4-1.46-2-4.49-2.1-6.89-.18-6.48-.75-7-7.19-5.48a28.08,28.08,0,0,1-2.9.4c2.68-3.38,6.78-1.81,10.16-2.73,1.27-.35,1.91,2.08,1.54,3.11C138.37,204.36,140.49,208.1,140.28,212Z"/><path class="cls-6" d="M238.79,119.79c2,.53,2.59,1.67,1.53,3.58-.78,1.39-1.45,2.84-2.17,4.26-2.35,2.52-5.07,2.22-8.53,1.05,3.16-2.07,7.52-2.2,7.82-6.69a1.65,1.65,0,0,0,1.48-2.11Z"/><path class="cls-5" d="M229.09,339.88c1.42-5.93-2.21-12,.65-17.81l.55,3.06c.06,2.16-1.51,5.25,2.84,5v.84c-2.19.87-2,2.75-2,4.6-.08,1.67.82,3.86-1.9,4.44Z"/><path class="cls-6" d="M208.88,303a7.5,7.5,0,0,0-1.49-.06c-4.7.6-7.63-.16-6.42-6.17.56-2.77-.51-5.86-.85-8.81,1.67,2.24,3.27,4.44,2.33,7.55C200.69,301.3,205,302,208.88,303Z"/><path class="cls-6" d="M98.19,145.14c-.11,3.37,3.89,2.63,4.89,4.89.38,2.09-.5,3.06-2.35,1.89-2.06-1.32-3.69-.65-5.43.36C97,150.21,95.22,146.71,98.19,145.14Z"/><path class="cls-7" d="M104.06,101.14c4.46-.47,8.84-2,13.41-.9C113.15,102.9,108.61,102,104.06,101.14Z"/><path class="cls-6" d="M120.32,98.33c1.2-1.13,2.49-2.22,1.55-4.14,3.62,3.64,2.61,9.06,5,13.16-2.37-.87-4.73-1.5-4-5.1A3.12,3.12,0,0,0,120.32,98.33Z"/><path class="cls-6" d="M194.26,258.94c-.92-4.42-3.77-5.65-7.94-5-1.68.27-3.28-.09-4.16-1.84,3.29.21,6.6.66,9.88.54,2.5-.09,2.83.67,2.23,2.83A12.45,12.45,0,0,0,194.26,258.94Z"/><path class="cls-6" d="M158.36,223.88c-2.43-.87-4.73-1.9-7.45-2-1.62-.09-4.64.27-4.39-3.11,2,2.19,5,.84,7.24,2.09C155.35,221.71,157.8,221.42,158.36,223.88Z"/><path class="cls-6" d="M235.25,345.07c1.21-3.67.73-7.49,1-11.25C237.17,337.68,240.74,341.77,235.25,345.07Z"/><path class="cls-7" d="M104.78,106.76c-3.25-1.55-3.84-3.4-.63-5.67C102.41,103.2,104.65,104.86,104.78,106.76Z"/><path class="cls-6" d="M133.14,108.17c.9-3.9,3.47,0,5-1.06C137,110.16,135.55,111.34,133.14,108.17Z"/><path class="cls-6" d="M228.24,350.1c1-3.53,3.26-5.35,7-5.06Z"/><path class="cls-6" d="M206.11,95.27c2.6-.81,5.17-4.12,7.85-.11C211.32,94.14,208.74,96.59,206.11,95.27Z"/><path class="cls-6" d="M143.3,82.9c-2.22.2-2.64-1.3-3-3.52,2.1.85,4.56-.32,5.72,2.39C144.91,81.62,143.14,79.92,143.3,82.9Z"/><path class="cls-6" d="M177,96.12c2.66,1.17,2.38,3.84,3.05,6C177,101.12,177.64,98.29,177,96.12Z"/><path class="cls-6" d="M197.93,99.17c2.63-1,6.32,1.9,8.16-2.16,1.42,1.71,1.34,3.37-1.1,3.19S200.05,100.93,197.93,99.17Z"/><path class="cls-6" d="M175.42,230.9c-3-1.27-6.51.14-9.26-2.06C169.26,229.46,172.86,227.83,175.42,230.9Z"/><path class="cls-6" d="M188.13,103.25a8.32,8.32,0,0,1,7-3.1C193.42,102.56,190.54,102.38,188.13,103.25Z"/><path class="cls-6" d="M200.21,277.2c-.6-3.22.57-6.24,1-9.34C202.82,271.18,201,274.13,200.21,277.2Z"/><path class="cls-6" d="M122,204.82c-2.37,1.3-3.51,4.65-6.94,4.21C117.8,208.26,118.54,204.26,122,204.82Z"/><path class="cls-6" d="M146.08,90.07c-2.85-1.37-1.9-3.89-1.86-6.14C146.21,85.56,146,87.87,146.08,90.07Z"/><path class="cls-6" d="M164.33,226.79c-2.67.29-4.93-.23-6.07-3C160.38,224.58,162.65,225.1,164.33,226.79Z"/><path class="cls-6" d="M218.27,365.05c-.12-2.59.39-4.87,3.07-6C220.35,361,220.2,363.5,218.27,365.05Z"/><path class="cls-6" d="M231.38,376.66c-2.23,0-5.43,1.67-5.09-2.89C226.73,377,230.47,374.31,231.38,376.66Z"/><path class="cls-6" d="M200.29,265.91c-1.31-1.4-3.33-2.09-4.12-4C198.53,262.22,200.45,263,200.29,265.91Z"/><path class="cls-6" d="M185.07,105a2.73,2.73,0,0,1,3.16-1.81C187.61,104.56,187.27,106.42,185.07,105Z"/><path class="cls-6" d="M180.91,103.19c1.46-.15,2.94-.33,3.12,1.77C182.34,105.52,181.45,104.67,180.91,103.19Z"/><path class="cls-6" d="M127.86,108.35l5.3-.21C131.45,109.66,129.7,110.22,127.86,108.35Z"/><path class="cls-5" d="M176,72.08c1.79,1.76.67,4,1.07,6C173.05,76.76,177.54,73.89,176,72.08Z"/><path class="cls-6" d="M236.31,379.75c-1.65-.06-3.91,1.06-4-2.05C233.8,378.08,235.32,378.4,236.31,379.75Z"/><path class="cls-5" d="M214.12,370.89a2.06,2.06,0,0,1,1-2.07l1.06,0c.32,0,.63.09.95.15a7,7,0,0,0,.09.92c-.76,1.15-2,.94-3.07,1Z"/><path class="cls-6" d="M127,201.73c-.77,1.85-2.26,2.25-4.07,2C123.7,202,125.51,202.25,127,201.73Z"/><path class="cls-6" d="M217.25,369.93a7,7,0,0,1-.09-.92c1.64-1.59,3-1.06,4.24.56Z"/><path class="cls-6" d="M224.21,355c-.09-1.55-.16-3.08,2.1-3C225.87,353.22,226.28,355,224.21,355Z"/><path class="cls-6" d="M233.13,330.93v-.84c2.36.16,3.08,1.7,3.16,3.77Z"/><path class="cls-6" d="M221.3,359.08c-.2-1.56-.29-3.05,1.94-3.1A4.47,4.47,0,0,1,221.3,359.08Z"/><path class="cls-5" d="M218,95c0,.72,0,1.45,0,2.17l-2.95-1.28c0-.29,0-.58,0-.88Z"/><path class="cls-5" d="M177.61,78.12c1.64.48,1.33,1.84,1.38,3C177.66,80.54,178.28,79,177.61,78.12Z"/><path class="cls-5" d="M178.89,81.08c1.46,1,1.54,2,0,3Z"/><path class="cls-6" d="M201.29,267.91c-1-.35-1.13-1.16-1-2.07A2.29,2.29,0,0,1,201.29,267.91Z"/><path class="cls-6" d="M141.23,214c-.95-.4-1.07-1.19-1-2.08C141.13,212.33,141.12,213.19,141.23,214Z"/><path class="cls-6" d="M195.26,260.93c-1-.36-1.1-1.17-1-2.05Z"/><path class="cls-6" d="M224.22,371.86c-.9,0-1.74-.1-1.83-1.28Z"/><path class="cls-6" d="M128.08,200c0,.9-.13,1.72-1.27,1.83Z"/><path class="cls-6" d="M238.26,380.81c-.91.05-1.72-.06-2-1.11A2.11,2.11,0,0,1,238.26,380.81Z"/><path class="cls-6" d="M216.21,368.86l-1.06,0c0-.82.24-1.54,1.13-1.85C216.25,367.6,216.23,368.23,216.21,368.86Z"/><path class="cls-6" d="M242.24,383.82c-.9,0-1.73-.07-2-1.18Z"/><path class="cls-6" d="M244.16,384.87c-.85,0-1.62-.17-2-1.09A2.11,2.11,0,0,1,244.16,384.87Z"/><path class="cls-6" d="M246.65,387.79c-1.12-.14-1.43-.9-1.49-1.88C245.66,386.54,246.15,387.17,246.65,387.79Z"/><path class="cls-5" d="M238.92,119.88a1.65,1.65,0,0,1-1.48,2.11C237.65,121.09,237.92,120.23,238.92,119.88Z"/><path class="cls-6" d="M139.13,106.18a1.61,1.61,0,0,1,1.67-1.1C140.63,106.05,139.84,106.05,139.13,106.18Z"/><path class="cls-6" d="M206.09,97c-1.11-.71-1.11-1.34.14-1.88C206.19,95.77,206.14,96.4,206.09,97Z"/><path class="cls-6" d="M176.23,94.12a2.06,2.06,0,0,1,.75,2C176.11,95.7,176.15,94.92,176.23,94.12Z"/><path class="cls-6" d="M146.87,92l-.78-2Z"/><path class="cls-6" d="M123,203.79l-1,1.12Z"/><path class="cls-6" d="M217.2,366l1.1-1Z"/><path class="cls-6" d="M216.2,367l1.05-1.06Z"/><path class="cls-6" d="M222.47,370.64a.91.91,0,0,1-1.05-1Z"/><path class="cls-6" d="M225.35,372.79l-1.16-1Z"/><path class="cls-6" d="M226.33,373.82l-1.06-1.1Z"/><path class="cls-6" d="M94.16,152.88l1.14-.67Z"/><path class="cls-6" d="M239.36,381.76l-1.15-1Z"/><path class="cls-6" d="M240.39,382.73l-1.1-1.05Z"/><path class="cls-6" d="M245.14,385.88l-1-1Z"/><path class="cls-6" d="M196.21,261.93c-.35-.35-.69-.71-1-1.07C195.52,261.22,195.86,261.58,196.21,261.93Z"/><path class="cls-6" d="M126.81,107.31a1,1,0,0,1,1.09,1Z"/><path class="cls-6" d="M138.11,107.11l1.06-1Z"/><path class="cls-6" d="M180,102.1l1,1.1Z"/><path class="cls-6" d="M195.09,100.18l1.45-1Z"/><path class="cls-6" d="M197,99.19c.39-.75.71-.82.91.1l-.46,0Z"/><path class="cls-6" d="M215,95.05c0,.3,0,.59,0,.88l-1.1-.81Z"/><path class="cls-6" d="M166.29,228.92c-.33-.38-.67-.76-1-1.15C165.62,228.16,166,228.54,166.29,228.92Z"/><path class="cls-6" d="M232.35,377.79l-1-1.12Z"/><path class="cls-6" d="M165.39,227.82l-1.13-1Z"/><path class="cls-6" d="M146.45,218.71a1,1,0,0,1-1.13-1Z"/><path class="cls-5" d="M179,84,178,85.06Z"/><path class="cls-6" d="M144.25,84l-1.06-1.09Z"/><path class="cls-6" d="M145.37,217.83l-1.3-1A1.22,1.22,0,0,1,145.37,217.83Z"/><path class="cls-6" d="M143.73,217a1.9,1.9,0,0,1-1.54-1.48Z"/><path class="cls-6" d="M142.08,215l-.91-1.08Z"/><path class="cls-6" d="M227.21,351.06,228.3,350Z"/><path class="cls-6" d="M226.22,352.07l1.06-1.08Z"/><path class="cls-6" d="M223.19,356l1.05-1.05Z"/><path class="cls-2" d="M116.21,256c.08-4.39-3.95-4.63-6.48-6.33-1.33-.9-1.46-2-1.41-3.4.13-3.74,4.21-.39,5.08-2.92.23-.67.73,0,.66.42-.64,3.48,2.7,5.07,3.76,7.8,1,2.5.77,3.61-1.64,4.4Z"/><path class="cls-5" d="M37.16,155.1c.94-3.3,1.91-6.6,2.84-9.91A6.8,6.8,0,0,1,45.83,140c-4.14,3.92-5.81,8.93-7,14.18-.1.4-1.06.59-1.62.88Z"/><path class="cls-2" d="M157.24,517.9c-.32-.56-1-1.19-.89-1.66,1.16-5.57-.1-10.95-1.09-16.36h0c4,3.74,3.94,8.44,2.8,13.19a19,19,0,0,0-.75,4.76Z"/><path class="cls-5" d="M137.24,305c-.07,3.65,1.95,7.43-.86,11.23-.09-1-.18-1.77-.21-2.53-.09-2.72,1.09-6.43-4.1-5.15-.19.05-.64-1-1-1.55l.17-.14c2.38.61,4.14-.58,5.84-2Z"/><path class="cls-5" d="M27.17,148.12c0,1,0,2,0,3l-.4.43.45-.39a6.66,6.66,0,0,1,4.33,2.14c-6.88.79-7,.8-7.27-1-.3-2.18.2-4,2.91-4.21Z"/><path class="cls-5" d="M167.15,301c2.07-4,2-8.44,2.27-12.81,1.8,4.85-.15,9.6-.32,14.39,0,.68-.55.77-1,.54-.86-.42-.9-1.29-.93-2.12Z"/><path class="cls-5" d="M113.25,260.11a9,9,0,0,1,.83,1.79c.34,1.39,4.47,4.16-1.23,3.62-.25,0-.66,1.67-1.09,2.81-3.67-3.59,2-5.53,1.3-8.41Z"/><path class="cls-2" d="M154.27,488.85c1.87,1.55.76,3.26-.33,4.21-2.18,1.89-4.18,0-6.32-.86,1.38-3,5.95.84,6.59-3.27Z"/><path class="cls-2" d="M150.25,487.88c-2.45-2.93-4.59-6-5-10l0,0c3.12,2.62,5.08,5.8,5,10Z"/><path class="cls-5" d="M114.13,237c.61-3.74-2-7.31-.18-11.12.82,3.68,3.37,7.26.23,11.16Z"/><path class="cls-5" d="M132.2,395c3.52,1.81,4.68,7.47,2.05,10l-.06-.05a30.69,30.69,0,0,0-2-10Z"/><path class="cls-5" d="M123.1,288.07c-3.77-3-.63-6.69-1-10l.09-.09c2.56,3.11.81,6.66,1,10Z"/><path class="cls-5" d="M61.18,116.74l1.87,0c-.45,2.88,3.25,6.35-1.62,8.89C61.51,122.52,62.92,119.52,61.18,116.74Z"/><path class="cls-5" d="M49.16,113.13c2.7.21,5.35-3,8.07-.1C54.55,113.82,51.87,114.93,49.16,113.13Z"/><path class="cls-2" d="M141.27,466.88c4.1,2.14-.15,5.67,1.7,8.19-2.74-2.34-1.26-5.42-1.76-8.15Z"/><path class="cls-2" d="M175.25,550.94v-1.11h13.81v1.11Z"/><path class="cls-5" d="M204.17,341c-.78,2.95-.08,4.6,3.39,4a2.42,2.42,0,0,1,2.6,1h0c-1.5,0-3,0-4.5,0-1.26-.05-2.87.45-3.34-1.32a3,3,0,0,1,1.82-3.67Z"/><path class="cls-5" d="M213.21,372a9.35,9.35,0,0,1-.6,9.42l.51-9.51Z"/><path class="cls-5" d="M132.27,343c-1,2.2-3.08,3.67-3.63,6.12-.5-3.06-1.13-6.2,3.49-6.24Z"/><path class="cls-5" d="M158.2,302a10.14,10.14,0,0,1-1.61,5.41c-2.06-.88-2.52-2.5-2.47-4.4l.07-.08c1.79,1.5,2.83.15,3.93-1Z"/><path class="cls-5" d="M137.22,449.93c2.65,3.06.93,6.6,1.07,9.93l-.09.1c-1.93-3.2-.67-6.7-.95-10.06Z"/><path class="cls-5" d="M137.25,449.9c-1-.25-3.42.35-2-1.79,1.17-1.7.37-3.56,1.93-6.12v7.94Z"/><path class="cls-5" d="M134.17,414c-4.27-3-.1-6,0-9.06l.06.05c0,3,0,5.95,0,8.93Z"/><path class="cls-5" d="M224.11,345.89c-.12-3.47,2.49-4.69,5-6l.09.09c-.62,2.87-3.26,4.06-5,6Z"/><path class="cls-5" d="M168.72,540.08c-1.84-.68-3.75,1-5.51-.49C165.07,538.84,166.92,538.35,168.72,540.08Z"/><path class="cls-5" d="M203.12,326a8.84,8.84,0,0,1-6.1-2.49c2.25.24,4.69-.1,6.16,2.41Z"/><path class="cls-5" d="M172.74,280.52c2.23-1,4.19-2.11,6.78-1.07C177.28,280.45,175.34,281.58,172.74,280.52Z"/><path class="cls-6" d="M77.21,131c3.65.08,1.82,3.45,3,5C76.89,135.72,78.62,132.4,77.21,131Z"/><path class="cls-5" d="M210.16,345.93h6.41c-3.12,2.7-4.78,1.51-6.42,0Z"/><path class="cls-5" d="M134.27,413.9c2.22,1.13,2,3.07,1.84,6.1-1.27-2.52-2-4.14-1.94-6Z"/><path class="cls-5" d="M131.1,307c-1.35-1.46-2.25-3.06-1.6-5.32,1.94,1.4,1.62,3.37,1.76,5.18Z"/><path class="cls-6" d="M75.1,127.17c1.93.58,1.57,2.45,2.14,3.8C74.37,130.92,75.36,128.69,75.1,127.17Z"/><path class="cls-5" d="M146.17,301.2h5.06v.53H146.3Z"/><path class="cls-5" d="M167.16,301h-5.9c2-.81,4-1.81,5.89,0Z"/><path class="cls-5" d="M171.88,281.8a11.12,11.12,0,0,1,0,2.52c-.12.39-.63,1-.93.94-.9,0-.79-.83-.56-1.37A13.32,13.32,0,0,1,171.88,281.8Z"/><path class="cls-5" d="M214.35,390.75c2.48,1.11,2.52,2.24,0,3.39-.12-.13-.25-.27-.39-.4l.06-2.74Z"/><path class="cls-6" d="M100.1,137.17c2.38,1.23,2.06,2.59.17,4C100.21,139.84,100.15,138.51,100.1,137.17Z"/><path class="cls-5" d="M220.14,345.93c-.07,1.05-.3,2-1.66,1.77-.34-.06-.89-.72-.82-.9.46-1.2,1.6-.7,2.49-.87Z"/><path class="cls-5" d="M155.24,497.88c.14-.9-.37-2,.82-2.53a.84.84,0,0,1,.72.38c.25,1.22-.67,1.68-1.52,2.16Z"/><path class="cls-5" d="M204.13,340.92v-4.6c1.47,2.07,1.31,3.39,0,4.63Z"/><path class="cls-5" d="M61.22,128.79l-1.07.85c-.2-.33-.64-.72-.56-1s.57-.63.88-.93Z"/><path class="cls-5" d="M214.05,391c-1.51-1.48-.71-3.36-.9-5.07l0-.05c1.75,1.3.72,3.26,1.15,4.87Z"/><path class="cls-5" d="M190.12,278h-4.56c2-1.46,3.34-1.27,4.59,0Z"/><path class="cls-5" d="M133.3,422c0,1.63,0,3.27-.05,4.91l-.06,0a3.48,3.48,0,0,1,0-5.09Z"/><path class="cls-5" d="M113.06,259.92c.19-.73.3-1.54,1.35-1.47a.46.46,0,0,1,.3.32c.09,1.05-.74,1.14-1.46,1.33Z"/><path class="cls-5" d="M129.21,322l.09,3.88-.22.19c-1.25-1.39-1.38-2.77.09-4.11Z"/><path class="cls-5" d="M178.15,313c-.75-.11-1.59-.14-1.56-1.23a.44.44,0,0,1,.32-.31c1.09,0,1.16.76,1.25,1.54Z"/><path class="cls-5" d="M57.15,113c1.48-.11,2.08.9,2.57,2A2.6,2.6,0,0,1,57.15,113Z"/><path class="cls-5" d="M150.24,487.9c1.38.16,3-.54,4,1l-.06.08c-1.37-.17-2.94.44-4-1.05Z"/><path class="cls-5" d="M132.23,394.93c-.63-.09-1.36-.08-1.49-.91,0-.16.38-.57.54-.55.84.12.8.87.92,1.49Z"/><path class="cls-5" d="M138.24,437.91c1.32.9,1.08,2,.16,3.17l-.18-3.15Z"/><path class="cls-5" d="M155.26,497.89c0,.67,0,1.33,0,2h0c-.76-.12-1.72-.17-1.51-1.23.06-.34,1-.52,1.49-.77Z"/><path class="cls-5" d="M141.21,466.92a2.2,2.2,0,0,1-.57-3.12c1.07.91.4,2.09.63,3.08Z"/><path class="cls-5" d="M134.24,429.92c1.14.93,1.38,2,.18,3.6-.08-1.46-.14-2.53-.2-3.59Z"/><path class="cls-5" d="M123.23,288a1.6,1.6,0,0,1,.78,2c0,.12-.25.19-.38.28-.17-.72-.35-1.44-.53-2.16Z"/><path class="cls-5" d="M129.32,327.09l-.6,2.14c-.13-.1-.32-.18-.36-.3a1.8,1.8,0,0,1,.71-2.06Z"/><path class="cls-5" d="M131.13,337.5l-.49.79c-.13-.28-.38-.56-.37-.83s.29-.52.45-.78Z"/><path class="cls-5" d="M223.12,346l-3,0h0c1-1.31,2-1.31,3,0Z"/><path class="cls-5" d="M213.15,385.93a1.61,1.61,0,0,1-.76-2c0-.12.25-.17.38-.26.15.73.29,1.46.43,2.19Z"/><path class="cls-5" d="M133.25,426.91c1.19.72,1,1.9,1,3h0c-1.19-.7-1-1.86-1-3Z"/><path class="cls-5" d="M159.24,521.85v-3l0,0c1.31,1,1.32,2,0,3Z"/><path class="cls-5" d="M181.8,278.48c.31-.16.58-.41.86-.41s.53.26.8.4c-.27.15-.54.41-.81.41S182.11,278.64,181.8,278.48Z"/><path class="cls-5" d="M190.15,278l2.24.41c-.09.13-.15.35-.27.39a1.59,1.59,0,0,1-2-.77Z"/><path class="cls-5" d="M207.11,333.44c-.18.27-.34.53-.5.78-.14-.27-.39-.55-.38-.82s.3-.52.46-.78Z"/><path class="cls-5" d="M207.12,329l-.77-1.12.4-.26.42,1.34Z"/><path class="cls-5" d="M178.16,313l1.34.39-.25.4-1.1-.79Z"/><path class="cls-5" d="M132.13,342.91l.49-1.35c.12.1.37.27.36.3-.22.4-.47.78-.71,1.16Z"/><path class="cls-5" d="M182.2,315.89l1.32.49c-.1.13-.27.37-.3.36-.39-.22-.76-.48-1.14-.72Z"/><path class="cls-5" d="M115.14,222l.28-1.26.5.33-.76.94Z"/><path class="cls-5" d="M132.15,320c.37-.25.74-.51,1.12-.74a3.24,3.24,0,0,1,.28.37l-1.35.43Z"/><path class="cls-5" d="M130.14,321a2,2,0,0,1,2-1l0,.06a2,2,0,0,1-2,1Z"/><path class="cls-5" d="M127.21,353l-.41,1.31a3.56,3.56,0,0,1-.36-.26c.23-.37.49-.72.74-1.08Z"/><path class="cls-5" d="M36.2,157.13c-.69,1.07-1.39,1.06-2.09,0l.09-.08h1.92Z"/><path class="cls-5" d="M203.18,325.9l1.36.42c-.1.13-.26.38-.27.38-.39-.23-.77-.48-1.15-.72Z"/><path class="cls-5" d="M196.73,280.64l.15.37-.55.11c0-.13,0-.3.07-.4S196.62,280.67,196.73,280.64Z"/><path class="cls-5" d="M207.17,328.92c.25.37.5.73.73,1.11a2.84,2.84,0,0,1-.36.28l-.42-1.35Z"/><path class="cls-5" d="M114.18,237.05l-.42,1.36-.38-.26c.24-.39.5-.76.75-1.14Z"/><path class="cls-5" d="M37.16,155.1a2,2,0,0,1-1,2l-.08-.07c.05-.81.16-1.59,1-2Z"/><path class="cls-5" d="M127.18,353l.4-1.37.39.26c-.24.39-.5.76-.76,1.14Z"/><path class="cls-5" d="M115.16,222l-.39,1.38-.41-.26.78-1.13Z"/><path class="cls-6" d="M99.2,143.13a1.87,1.87,0,0,1-1,2A1.76,1.76,0,0,1,99.2,143.13Z"/><path class="cls-6" d="M100.24,141.17a1.84,1.84,0,0,1-1,2C99.16,142.26,99.3,141.5,100.24,141.17Z"/><path class="cls-5" d="M145.23,477.91l-1.38-.4.26-.39c.39.24.77.5,1.15.76Z"/><path class="cls-5" d="M159.24,518.89a1.9,1.9,0,0,1-2-1l0-.06a2,2,0,0,1,2,1Z"/><path class="cls-5" d="M139.15,302.22c.12.06.28.08.35.17s-.05.22-.08.33l-.6-.27Z"/><path class="cls-5" d="M33.22,156l1,1-.09.08-1-1Z"/><path class="cls-5" d="M213.12,371.87l1-1,.06.06-1,1Z"/><path class="cls-5" d="M33.09,156.17l-.4-.55.53.42Z"/><path class="cls-5" d="M27.15,148.1l.44-.42c0,.09,0,.22-.06.28a1.46,1.46,0,0,1-.36.16Z"/><path class="cls-5" d="M172.17,306.94l.42.5-.46-.45Z"/><path class="cls-5" d="M182.08,316l-.41-.51.53.39Z"/><path class="cls-5" d="M130.22,321l-1,1,0,0,1-1Z"/><path class="cls-5" d="M116.18,256a1.68,1.68,0,0,1-.16.39c0,.06-.18.05-.28.08l.47-.44Z"/><path class="cls-6" d="M80.18,136l1.11,1Z"/><path class="cls-5" d="M129.3,325.88c.69.39.69.8,0,1.21l-.25-.22a3.57,3.57,0,0,0,0-.8Z"/><path class="cls-5" d="M133.17,421.87l.53-.39-.4.51Z"/><path class="cls-5" d="M119.15,274l-.2.4.23-.38Z"/><path class="cls-5" d="M138.22,437.93l-.44-.44c.1,0,.23,0,.28.07a1.64,1.64,0,0,1,.18.35Z"/><path class="cls-5" d="M138.29,459.86l.41.5-.5-.4Z"/><path class="cls-5" d="M122.12,278l-1-1,.1-.1,1,1Z"/><path class="cls-5" d="M158.12,301.93l.47-.42-.39.5Z"/><path class="cls-5" d="M223.17,345.9h.94l.06.07c-.36.7-.71.73-1,0Z"/><path class="cls-5" d="M170.25,543.86l-.43-.44c.09,0,.22,0,.27.07a1.52,1.52,0,0,1,.18.36Z"/><path class="cls-5" d="M121.11,277.05l-.4-.51.5.41Z"/><path class="cls-5" d="M174.13,549.86l.12-1,1,1Z"/><path class="cls-5" d="M154.12,303l-.44-.5.51.42Z"/><path class="cls-5" d="M119.18,274l.21-.39-.24.37Z"/><path class="cls-5" d="M137.11,304.91l.52-.41-.39.54Z"/><path class="cls-5" d="M172.13,307l-.41-.46.45.41Z"/><path class="cls-5" d="M192.08,74.12c0,3.3,0,6.6,0,9.9l-.1.09A11.5,11.5,0,0,1,192,74Z"/><path class="cls-5" d="M218,74c-.51,2.79.91,5.33,1,8C216,79.73,216.6,76.93,218,74Z"/><path class="cls-5" d="M86.07,53.18c-2.54-2.66.8-5.38-.07-8.06C88.67,47.79,85.07,50.5,86.07,53.18Z"/><path class="cls-5" d="M167.43,68.14a14.23,14.23,0,0,1-1.2-2.25c-.15-.64,0-1.34.87-1.34s.87.79.86,1.38A12.82,12.82,0,0,1,167.43,68.14Z"/><path class="cls-5" d="M173.14,55c.94.21,2,.35,1.46,1.74-.13.32-.72.45-1.09.67l-.57-2.25Z"/><path class="cls-5" d="M197.13,71.44c-.19-.33-.65-.76-.57-1a6.47,6.47,0,0,1,.95-1.55A3.33,3.33,0,0,1,198,70C198,70.52,198.26,71.3,197.13,71.44Z"/><path class="cls-5" d="M220,88c-.22,1.7.68,3.63-1,5C219.21,91.36,218.28,89.42,220,88Z"/><path class="cls-5" d="M88.08,55.91l-2-2.77C88,53.14,88.1,54.47,88.08,55.91Z"/><path class="cls-5" d="M172.94,55.16c-1-1-1.28-2-.15-3.66.14,1.42.24,2.46.34,3.5Z"/><path class="cls-5" d="M220,84.05c1.54,1.34,1.42,2.68,0,4Z"/><path class="cls-5" d="M192,74c.95-1.15,2-1.33,3.66-.17l-3.58.26Z"/><path class="cls-5" d="M169.1,59.14l-.29,3.53c-1.14-1.64-.95-2.7.21-3.62Z"/><path class="cls-1" d="M188.06,58.11c-.07,1-.14,2.11-.23,3.55-1.07-1.58-.94-2.65.19-3.59Z"/><path class="cls-5" d="M169,59.05a1.61,1.61,0,0,1,2-.78c.12,0,.18.25.27.39l-2.22.48Z"/><path class="cls-5" d="M175.07,49.12c-.38.26-.75.52-1.13.76,0,0-.18-.25-.27-.38l1.34-.44Z"/><path class="cls-5" d="M219,93a2,2,0,0,1-1,2C218,94.21,218.12,93.42,219,93Z"/><path class="cls-5" d="M193.08,85c.25.38.51.76.74,1.16,0,0-.25.18-.37.28-.16-.45-.31-.9-.46-1.35Z"/><path class="cls-5" d="M219,82a1.93,1.93,0,0,1,1,2A1.82,1.82,0,0,1,219,82Z"/><path class="cls-5" d="M219,72a2.05,2.05,0,0,1-1,2C218,73.24,218.13,72.44,219,72Z"/><path class="cls-5" d="M220,70.06a1.8,1.8,0,0,1-1,2A1.9,1.9,0,0,1,220,70.06Z"/><path class="cls-5" d="M86.05,45.21c-1-.34-1-1.25-1.36-2C85.79,43.43,86.06,44.23,86.05,45.21Z"/><path class="cls-5" d="M192.1,84l1,1-.09.09-1-1Z"/><path class="cls-5" d="M175,49.06l1-1v0l-1,1Z"/><path class="cls-1" d="M254.27,547.81l-1.06,1.05Z"/><path class="cls-7" d="M27.18,151.13l-.45.39.4-.43Z"/><path id="Path_16" data-name="Path 16" class="cls-8" d="M246.38,276.1a16.61,16.61,0,0,0,1.27-2.86c1.72-5.55,1.66-11-1.05-16.23a31.75,31.75,0,0,1-2.64-5.44,17.31,17.31,0,0,1,2.2-15.3c.18-.27.38-.25.64-.2a10.76,10.76,0,0,1,5.89,3.48,19.89,19.89,0,0,1,4.73,10,29,29,0,0,1-1.6,16.71,18.52,18.52,0,0,1-5.94,8.06A11,11,0,0,1,246.38,276.1Z"/><path id="Path_17" data-name="Path 17" class="cls-8" d="M242.3,236.3a17.79,17.79,0,0,0-1.78,4.55,20.84,20.84,0,0,0,2.18,15.78,18,18,0,0,1,2.56,6.26c.72,4.7.11,9.14-2.68,13.14a.64.64,0,0,1-.79.31,11.54,11.54,0,0,1-6.82-4.68,22.06,22.06,0,0,1-4.05-10.87,28.59,28.59,0,0,1,2.16-15.14,17.26,17.26,0,0,1,6.93-8.34,15,15,0,0,1,1.4-.68C241.65,236.52,241.9,236.44,242.3,236.3Z"/><path id="Path_16-2" data-name="Path 16" class="cls-8" d="M73,106.19a15.7,15.7,0,0,0,1.28-2.87c1.71-5.54,1.66-11-1.06-16.23a31.66,31.66,0,0,1-2.64-5.43,17.34,17.34,0,0,1,2.2-15.3c.19-.28.38-.25.64-.2a10.76,10.76,0,0,1,5.9,3.48,20,20,0,0,1,4.72,10,28.79,28.79,0,0,1-1.6,16.71,18.42,18.42,0,0,1-5.93,8A10.83,10.83,0,0,1,73,106.19Z"/><path id="Path_17-2" data-name="Path 17" class="cls-8" d="M68.94,66.38a18.26,18.26,0,0,0-1.79,4.56,20.82,20.82,0,0,0,2.18,15.77A17.72,17.72,0,0,1,71.89,93a17.42,17.42,0,0,1-2.67,13.14.64.64,0,0,1-.79.31,11.55,11.55,0,0,1-6.83-4.69,22.09,22.09,0,0,1-4.05-10.86,28.69,28.69,0,0,1,2.16-15.14,17.28,17.28,0,0,1,6.94-8.34A11.91,11.91,0,0,1,68,66.72,9.48,9.48,0,0,1,68.94,66.38Z"/></svg>