<svg id="Layer_1" data-name="Layer 1" xmlns="http://www.w3.org/2000/svg" viewBox="0 0 246.4 383.08"><defs><style>.cls-1{fill:#d9febe;}.cls-2{fill:#e1f5fb;}.cls-3{fill:#60330a;}.cls-4{fill:#c1eefa;}.cls-5{fill:#a55925;}.cls-6{fill:#a4eafb;}.cls-7{fill:#bef991;}.cls-8{fill:#9ad858;}.cls-9{fill:#fd4f60;}.cls-10{fill:#874a02;}</style></defs><path class="cls-1" d="M212.1,0c6.71,2.27,13,5.12,17.25,11.21-.23.28-.63.55-.66.85-.57,5.4-3.47,7.67-9,8.39-12.35,1.62-20.83,8.78-25.3,20.31-3.12,8.06-3.91,8.85-11.79,7.89-6.94-6.46-8.79-20.26-4.83-29.71C182.05,8.82,189.93,3.1,200.1,0Z"/><path class="cls-2" d="M38.09,141c-7.18-7.45-13.17-15.89-19.82-23.78C13,110.9,7.88,104.46,2.69,98.09.75,95.7-1,93.26.63,90S5,86,8.4,86c20.08,0,40.17,0,60.25-.08q40.26.06,80.53.12c4.75,0,9.49,0,14.23.06-2.07,2.93-4.95,5.12-5.42,9.29a109.63,109.63,0,0,1-7,28.31c-2.56,6.48-6.49,12.21-9.36,18.5l-1.46.11-22.77-6c-10.51-2.79-21.1-5.16-32-5.25A117,117,0,0,0,38.09,141Z"/><path class="cls-3" d="M140.16,142.32l1.46-.11c1.56,1.24,3.64.18,5.26,1.19-.71,3.72-3.12,6.73-4.35,10.25-1.64,4.66-.93,8,2.53,9.65,4,1.85,7.48.49,9.74-4.1,2.46-5,4.68-10.15,7-15.23a125.85,125.85,0,0,0,44.06-10.05c4.1-1.71,7.86-4.22,12.25-5.26-4.35,6.68-9.76,12.53-14.76,18.7q-36.15,44.55-72.4,89c-.55.67-1,1.43-1.46,2.15-5,4.35-7.46,4.39-12.67.21q-16.58-20.5-33.13-41c-1-1.25-1.87-2.63-2.8-3.95,0-8.36,1.59-10.81,9.59-13.26a89.21,89.21,0,0,0,13.83-5.62,94.46,94.46,0,0,0,28.94-22.66C135.88,149.23,139.25,146.58,140.16,142.32Z"/><path class="cls-4" d="M218.12,128.66c-4.39,1-8.15,3.55-12.25,5.26A125.85,125.85,0,0,1,161.81,144l-14.93-.57c-1.62-1-3.7,0-5.26-1.19,2.87-6.29,6.8-12,9.36-18.5a109.63,109.63,0,0,0,7-28.31c.47-4.17,3.35-6.36,5.42-9.29L173.64,86,188,86c17,0,33.9.11,50.85,0,3.13,0,5.31,1,6.75,3.61a6.37,6.37,0,0,1-.88,7.32c-8,10-16.11,19.8-24.21,29.66a10.75,10.75,0,0,1-1.73,1.39c-.44.06-.81.19-.72.75Z"/><path class="cls-5" d="M140.16,142.32c-.91,4.26-4.28,6.91-6.9,9.91a94.46,94.46,0,0,1-28.94,22.66,89.21,89.21,0,0,1-13.83,5.62c-8,2.45-9.61,4.9-9.59,13.26L56.21,163.83q-7.85-9.51-15.71-19L38.1,141a116.89,116.89,0,0,1,47.26-9.9c10.93.09,21.52,2.46,32,5.25Z"/><path class="cls-6" d="M116.83,238.73c5.21,4.18,7.65,4.14,12.67-.21q.06,28.23.11,56.48c0,23.69.08,47.38-.08,71.07,0,3.52,1,4.35,4.41,4.32,15.25-.18,30.49-.09,45.73-.07,4.86,0,7.56,2.24,7.65,6.24.08,3.61-3.23,6.51-7.61,6.51q-56.79,0-113.58,0c-4.74,0-7.09-2.32-7-6.75,0-4.1,2.3-6,7.21-6,15.37,0,30.74-.11,46.11.06,3.47,0,4.47-1,4.46-4.46Q116.73,302.32,116.83,238.73Z"/><path class="cls-7" d="M182.64,48.65c7.88,1,8.67.17,11.79-7.89,4.47-11.53,12.95-18.69,25.3-20.31,5.49-.72,8.39-3,9-8.39,0-.3.43-.57.66-.85,14,18.25,5.16,43-17.23,48.23-4.19,1-8.44.12-12.65.5l-11.84-5.22C186.75,52.06,183.56,51.28,182.64,48.65Z"/><path class="cls-8" d="M187.63,54.72l11.84,5.22L188,86l-14.37,0Q180.63,70.36,187.63,54.72Z"/><path class="cls-9" d="M218.07,128.72c-.09-.56.28-.69.72-.75A.66.66,0,0,1,218.07,128.72Z"/><path class="cls-10" d="M146.88,143.4l14.93.57c-2.33,5.08-4.55,10.21-7,15.23-2.26,4.59-5.75,6-9.74,4.1-3.46-1.6-4.17-5-2.53-9.65C143.76,150.13,146.17,147.12,146.88,143.4Z"/></svg>