<svg id="Layer_1" data-name="Layer 1" xmlns="http://www.w3.org/2000/svg" viewBox="0 0 511.81 364.46"><defs><style>.cls-1{fill:#d8d8d8;}.cls-2{fill:#b9b9b9;}.cls-3{fill:#754731;}.cls-4{fill:#8f563b;}.cls-5{fill:#b8b8b8;}.cls-6{fill:#ccc;}.cls-7{fill:#754732;}</style></defs><path class="cls-1" d="M0,.09Q76.57.09,153.15,0c4.42,0,6.2.94,5.89,5.72-.42,6.79-.11,13.63-.11,20.44l0,35.93q0,8.91,0,17.81c0,7.14-.19,14.28.07,21.41.14,3.69-1,4.86-4.74,4.82-16.1-.19-32.2-.08-48.3-.08H0Zm79.32,44c8.66,0,17.32.05,26,0,5.09-.05,8.91-3.32,9.44-7.83a8.7,8.7,0,0,0-7.43-9.14c-18.23-2-36.53-.83-54.8-.66a1.78,1.78,0,0,0-.47.17c-5.15,1.39-8.44,5.27-7.91,9.34.65,5.05,4.43,8.1,10.21,8.13C62.66,44.11,71,44.08,79.32,44.08Z"/><path class="cls-2" d="M106.15,167.89c8.82,0,17.65,0,26.47.08,14.38.2,25.9,11,26.17,25.39.38,19.64.07,39.3.18,58.94,0,2.82-.91,3.76-3.73,3.74-12.16-.12-24.31-.14-36.47,0-3.12,0-4-1.08-3.94-4.06.15-8.82-.06-17.65.11-26.47.07-3.29-.67-4.71-4.37-4.69q-31.21.25-62.44,0c-3.38,0-4.24,1.19-4.17,4.35.18,7.83.11,15.65,0,23.48-.07,8.38,1.06,7.25-7.55,7.29C24.31,256,12.15,256,0,256V189c1-.59,1-1.68,1.29-2.6,4.3-12.06,13.15-18.37,26-18.47,8.49-.06,17,0,25.47-.07Z"/><path class="cls-3" d="M0,337l22.53-45.74c4.29,8.54,8.26,16.34,12.14,24.18,2.95,6,6.17,11.8,8.58,18,4.71,12-.74,24.75-12.14,29.39s-23.94-.63-29.4-12.44c-.52-1.13-.13-2.78-1.71-3.37Z"/><path class="cls-2" d="M476.68,26.24c10.95-.14,21.43.8,29.16,10.18,2.68,3.26,3.59,7.33,6,10.65v12c-2.66,3.17-3.24,7.41-6,10.67-7.79,9.25-18,10.16-28.94,9.37Q476.78,52.68,476.68,26.24Z"/><path class="cls-4" d="M476.68,26.24q.09,26.45.2,52.87c-.88,3.37-1.27,7-2.72,10.06-5,10.7-13.66,16.17-25.47,15.84-21.14-.61-42.28-1.51-63.41-2.34q-44.94-1.77-89.86-3.62Q271.21,98,247,97q0-43.9,0-87.82c31.09-1.32,62.17-2.69,93.26-3.94Q393.86,3,447.48,1.06c11.73-.45,20.58,4.25,26.24,14.68C475.51,19,475.77,22.72,476.68,26.24Z"/><path class="cls-5" d="M247,9.14q0,43.92,0,87.82c-10.48.06-20.95.05-31.43.21-2.74,0-3.91-.8-3.82-3.68.14-4.3,1.49-9.77-1.39-12.52-3.07-2.92-8.58-.92-13-1-12.8-.17-25.61-.08-38.42-.1q0-8.91,0-17.81c16.12,0,32.25-.09,48.37,0,3.33,0,4.76-.77,4.66-4.42-.28-10.29-.21-20.6-.29-30.9,0-4.8.17-9.59.08-14.38-.05-2.54.88-3.54,3.46-3.5C225.82,9.06,236.39,9.08,247,9.14Z"/><path class="cls-6" d="M52.79,167.88,53.12,124H105.8q.18,22,.35,43.91Z"/><path class="cls-7" d="M137.31,291.17c7.11,14.31,14.21,27.64,20.39,41.38a22.42,22.42,0,0,1-37.31,24.05c-5.09-6.1-7.33-13.29-4.47-20.88C121.64,320.5,130.1,306.57,137.31,291.17Z"/><path class="cls-2" d="M105.8,124H53.12Q53,115,53,106.05h53Q105.88,115,105.8,124Z"/><path class="cls-6" d="M211.7,26.8c.08,10.3,0,20.61.29,30.9.1,3.65-1.33,4.45-4.66,4.42-16.12-.12-32.25,0-48.37,0l0-35.93C176.52,26.51,194.1,27.61,211.7,26.8Z"/><path class="cls-2" d="M79.32,44.08c-8.33,0-16.66,0-25,0-5.78,0-9.56-3.08-10.21-8.13C43.6,31.87,46.89,28,52,26.6a1.78,1.78,0,0,1,.47-.17c18.27-.17,36.57-1.37,54.8.66a8.7,8.7,0,0,1,7.43,9.14c-.53,4.51-4.35,7.78-9.44,7.83C96.64,44.13,88,44.08,79.32,44.08Z"/></svg>