<svg id="Layer_1" data-name="Layer 1" xmlns="http://www.w3.org/2000/svg" viewBox="0 0 264.06 347.16"><defs><style>.cls-1{fill:#db9165;}.cls-2{fill:#9bddfe;}.cls-3{fill:#3ea6fe;}.cls-4{fill:#2c7cd3;}.cls-5{fill:#8bcce8;}.cls-6{fill:#ac693d;}.cls-7{fill:#2b7cd3;}.cls-8{fill:#3ea7fe;}.cls-9{fill:#db9265;}.cls-10{fill:#2c7dd4;}.cls-11{fill:#ad693d;}.cls-12{fill:#da9367;}</style></defs><path class="cls-1" d="M12.15,326.06c-1-7.23,1.56-14,3-20.86,2.65-12.73,5.52-25.42,8.3-38.12,10.71-3.84,21.65-6.8,33.06-7.53a112.22,112.22,0,0,1,52.27,8.77c15.79,6.77,32.25,10.35,49.5,9.79a133.91,133.91,0,0,0,25.49-3.74c1.5,6.9,2.94,13.82,4.53,20.7,3.94,17-7.19,31-24.73,31Q87.86,326.08,12.15,326.06Z"/><path class="cls-2" d="M183.76,274.37a133.91,133.91,0,0,1-25.49,3.74c-17.25.56-33.71-3-49.5-9.79a112.22,112.22,0,0,0-52.27-8.77c-11.41.73-22.35,3.69-33.06,7.53,2.83-13.44,5.63-26.89,8.51-40.33,2.1-9.8,4.32-19.58,6.49-29.37,9.36,0,18.72-.1,28.08.05,11.68.18,23.36-.6,35,1.36a102,102,0,0,1,53.35,26.32,100.31,100.31,0,0,1,21.87,29.94c3,6.05,4.72,12.53,7.13,18.78A5.29,5.29,0,0,1,183.76,274.37ZM126.12,227.6a10.44,10.44,0,0,0-.18-1.95c-2.23-7.63-6.56-14.16-10.83-20.73-.88-1.34-1.64-.65-2.25.3-3.91,6.06-7.89,12.09-10.17,19-1.58,4.78-.08,8.85,3.59,12.07a11.13,11.13,0,0,0,12.85,1.85A11.68,11.68,0,0,0,126.12,227.6Z"/><path class="cls-3" d="M138.5,107.62l67.86.13c-4.41,8.17-11.76,11.73-20.57,11.76q-82.42.22-164.84,0c-5.46,0-11,.7-16.3-1.31a1.35,1.35,0,0,0-1.61.63c-.1-.08-.24-.13-.29-.24-4.59-10.41-4.19-11,7-11H90.06c-4-9.29-7.79-18.18-11.59-27.07Q66.38,52.21,54.28,23.88c3.87,0,7.75-.06,11.62-.07l65.57-.13h1.23l23.34.26c-7.25,16.88-14.57,33.74-21.75,50.66-4,9.39-9,18-17.58,24a55.43,55.43,0,0,1-21.22,9Z"/><path class="cls-4" d="M228.23,168.17c11.74,6.69,20.19,16.54,26.55,28.2a74.46,74.46,0,0,1,9.28,36.47c-.07,19.82,0,39.65,0,59.47,0,7.61-4.91,12.83-12,12.83s-12-5.23-12-12.83c0-17.58.1-35.15,0-52.73a59.81,59.81,0,0,0-45.45-58.21,55.49,55.49,0,0,0-14.41-1.81q-34.63-.06-69.27-.11-34.45,0-68.9.11c-8-.81-12.27-5.78-11.7-13.51a16.07,16.07,0,0,0,7.25,1.45c22.36-.05,44.72-.17,67.09,0C145.83,167.82,187,166.58,228.23,168.17Z"/><path class="cls-5" d="M42,179.56q34.46-.06,68.9-.11,34.64,0,69.27.11,9.27,43,18.53,86a26.68,26.68,0,0,1,.31,3,67.11,67.11,0,0,1-15.12,5.26c-2.41-6.25-4.15-12.73-7.13-18.78a100.31,100.31,0,0,0-21.87-29.94,102,102,0,0,0-53.35-26.32c-11.66-2-23.34-1.18-35-1.36-9.36-.15-18.72,0-28.08-.05Q40.23,188.47,42,179.56Z"/><path class="cls-6" d="M183.89,273.83A67.11,67.11,0,0,0,199,268.57c3.07,10.61,4.81,21.52,7.25,32.28,1.4,6.17,2.73,12.36,3.81,18.6,2.76,15.95-11.07,27.78-24,27.71-50.22-.29-100.45-.1-150.67-.13-12,0-22.69-9.72-23.21-21q75.71,0,151.41,0c17.54,0,28.67-14,24.73-31-1.59-6.88-3-13.8-4.53-20.7A5.29,5.29,0,0,0,183.89,273.83Z"/><path class="cls-5" d="M197.45,131.75c-5.17,8.29-11.61,15.65-17.24,23.6-1.62.05-3.24.14-4.86.14H46.84c-1.62,0-3.24-.09-4.86-.14-5.63-7.95-12.07-15.3-17.24-23.58,1.24-.07,2.48-.2,3.73-.21H193.72C195,131.56,196.2,131.69,197.45,131.75Z"/><path class="cls-7" d="M197.45,131.75c-1.25-.06-2.49-.19-3.73-.19H28.47c-1.25,0-2.49.14-3.73.21-9.53-.45-17.13-4.13-21.7-12.89a1.35,1.35,0,0,1,1.61-.63c5.31,2,10.84,1.31,16.3,1.31q82.41.06,164.84,0c8.81,0,16.16-3.59,20.57-11.76,4.23,0,8.47.09,12.68-.2,3-.21,3.25,1.14,3,3.5-1.42,10.92-11.24,20-22.32,20.5C198.93,131.59,198.19,131.69,197.45,131.75Z"/><path class="cls-8" d="M42,155.35c1.62.05,3.24.14,4.86.14H175.35c1.62,0,3.24-.09,4.86-.14,10.09,0,20.11.58,29.75,3.9,6.45,2.21,12.81,4.66,18.27,8.92-41.19-1.59-82.4-.35-123.59-.67-22.37-.17-44.73-.05-67.09,0a16.07,16.07,0,0,1-7.25-1.45C31.67,159.4,34.72,156.61,42,155.35Z"/><path class="cls-9" d="M131.47,23.68l-65.57.13c-3.87,0-7.75,0-11.62.07C50.3,16,46.31,8.19,42.15,0h78c1,2.1,2.15,4.17,3.12,6.31C125.94,12.13,129.59,17.49,131.47,23.68Z"/><path class="cls-10" d="M138.5,107.62h-43a55.43,55.43,0,0,0,21.22-9c8.58-6,13.58-14.62,17.58-24,7.18-16.92,14.5-33.78,21.75-50.66l18-.08q-12.08,28.35-24.15,56.72C146,89.58,142.28,98.61,138.5,107.62Z"/><path class="cls-9" d="M174,23.86l-18,.08-23.34-.26a9.39,9.39,0,0,1,1.36-3.8Q139,9.94,144,0h42.32Z"/><path class="cls-11" d="M144,0q-5,9.95-9.95,19.88a9.39,9.39,0,0,0-1.36,3.8h-1.23c-1.88-6.19-5.53-11.55-8.18-17.37-1-2.14-2.08-4.21-3.12-6.31Z"/><path class="cls-12" d="M126.12,227.6a11.68,11.68,0,0,1-7,10.54,11.13,11.13,0,0,1-12.85-1.85c-3.67-3.22-5.17-7.29-3.59-12.07,2.28-6.91,6.26-12.94,10.17-19,.61-.95,1.37-1.64,2.25-.3,4.27,6.57,8.6,13.1,10.83,20.73A10.44,10.44,0,0,1,126.12,227.6Z"/></svg>